<svg width="49" height="49" viewBox="0 0 49 49" fill="none" xmlns="http://www.w3.org/2000/svg">
<path d="M0 14C0 6.26801 6.26801 0 14 0H35C42.732 0 49 6.26801 49 14V35C49 42.732 42.732 49 35 49H14C6.26801 49 0 42.732 0 35V14Z" fill="#CD929D"/>
<path d="M34.2463 15.7529C34.1282 15.6353 33.979 15.554 33.8162 15.5183C33.6535 15.4827 33.4839 15.4942 33.3275 15.5516L14.0775 22.5516C13.9115 22.6146 13.7686 22.7266 13.6677 22.8727C13.5668 23.0188 13.5128 23.1922 13.5128 23.3698C13.5128 23.5473 13.5668 23.7207 13.6677 23.8668C13.7686 24.0129 13.9115 24.1249 14.0775 24.1879L20.9807 26.9443C21.3526 27.0928 21.7771 27.0052 22.0598 26.7216L26.5249 22.2425C26.8651 21.9011 27.4178 21.9007 27.7586 22.2415C28.099 22.5819 28.099 23.1338 27.7586 23.4743L23.2677 27.9652C22.9848 28.2481 22.8977 28.6725 23.0465 29.044L25.8113 35.9479C25.8761 36.1107 25.9883 36.2503 26.1334 36.3486C26.2785 36.4468 26.4498 36.4993 26.625 36.4991C26.8018 36.4955 26.9734 36.4384 27.1171 36.3353C27.2608 36.2322 27.3699 36.088 27.43 35.9216L34.43 16.6716C34.4896 16.5168 34.504 16.3483 34.4715 16.1856C34.4389 16.0229 34.3608 15.8728 34.2463 15.7529Z" fill="white"/>
</svg>
