<svg width="22" height="23" viewBox="0 0 22 23" fill="none" xmlns="http://www.w3.org/2000/svg">
<g id="vuesax/bold/document-text">
<g id="document-text">
<path id="Vector" d="M14.4835 2.56534C14.1076 2.1895 13.4568 2.44617 13.4568 2.96867V6.16784C13.4568 7.50617 14.5935 8.61534 15.9776 8.61534C16.8485 8.6245 18.0585 8.6245 19.0943 8.6245C19.6168 8.6245 19.8918 8.01034 19.5251 7.64367C18.2051 6.3145 15.8401 3.922 14.4835 2.56534Z" fill="#CD929D"/>
<path id="Vector_2" d="M18.7917 9.87859H16.1426C13.9701 9.87859 12.2009 8.10943 12.2009 5.93693V3.28776C12.2009 2.78359 11.7884 2.37109 11.2842 2.37109H7.39758C4.57425 2.37109 2.29175 4.20443 2.29175 7.47693V15.5986C2.29175 18.8711 4.57425 20.7044 7.39758 20.7044H14.6026C17.4259 20.7044 19.7084 18.8711 19.7084 15.5986V10.7953C19.7084 10.2911 19.2959 9.87859 18.7917 9.87859ZM10.5417 16.8086H6.87508C6.49925 16.8086 6.18758 16.4969 6.18758 16.1211C6.18758 15.7453 6.49925 15.4336 6.87508 15.4336H10.5417C10.9176 15.4336 11.2292 15.7453 11.2292 16.1211C11.2292 16.4969 10.9176 16.8086 10.5417 16.8086ZM12.3751 13.1419H6.87508C6.49925 13.1419 6.18758 12.8303 6.18758 12.4544C6.18758 12.0786 6.49925 11.7669 6.87508 11.7669H12.3751C12.7509 11.7669 13.0626 12.0786 13.0626 12.4544C13.0626 12.8303 12.7509 13.1419 12.3751 13.1419Z" fill="#CD929D"/>
</g>
</g>
</svg>
