<svg width="24" height="25" viewBox="0 0 24 25" fill="none" xmlns="http://www.w3.org/2000/svg">
<g id="vuesax/outline/copy">
<g id="copy">
<path id="Vector" d="M11.1 23.6741H6.9C2.99 23.6741 1.25 21.9341 1.25 18.0241V13.8241C1.25 9.91407 2.99 8.17407 6.9 8.17407H11.1C15.01 8.17407 16.75 9.91407 16.75 13.8241V18.0241C16.75 21.9341 15.01 23.6741 11.1 23.6741ZM6.9 9.67407C3.8 9.67407 2.75 10.7241 2.75 13.8241V18.0241C2.75 21.1241 3.8 22.1741 6.9 22.1741H11.1C14.2 22.1741 15.25 21.1241 15.25 18.0241V13.8241C15.25 10.7241 14.2 9.67407 11.1 9.67407H6.9Z" fill="white"/>
<path id="Vector_2" d="M17.1 17.6741H16C15.59 17.6741 15.25 17.3341 15.25 16.9241V13.8241C15.25 10.7241 14.2 9.67407 11.1 9.67407H8C7.59 9.67407 7.25 9.33407 7.25 8.92407V7.82407C7.25 3.91407 8.99 2.17407 12.9 2.17407H17.1C21.01 2.17407 22.75 3.91407 22.75 7.82407V12.0241C22.75 15.9341 21.01 17.6741 17.1 17.6741ZM16.75 16.1741H17.1C20.2 16.1741 21.25 15.1241 21.25 12.0241V7.82407C21.25 4.72407 20.2 3.67407 17.1 3.67407H12.9C9.8 3.67407 8.75 4.72407 8.75 7.82407V8.17407H11.1C15.01 8.17407 16.75 9.91407 16.75 13.8241V16.1741Z" fill="white"/>
</g>
</g>
</svg>
