<svg width="32" height="33" viewBox="0 0 32 33" fill="none" xmlns="http://www.w3.org/2000/svg">
<rect y="0.88623" width="32" height="32" rx="8" fill="#CD929D"/>
<path d="M15.4256 20.6696L12.3172 17.5696C12.1854 17.4382 12.1113 17.2598 12.1113 17.0737C12.1113 16.8877 12.1854 16.7092 12.3172 16.5779C12.5944 16.3123 13.0317 16.3123 13.3089 16.5779L15.2172 18.4946V10.0862C15.2172 9.69963 15.5306 9.38623 15.9172 9.38623C16.3038 9.38623 16.6172 9.69963 16.6172 10.0862V18.4946L18.5256 16.5779C18.8027 16.3123 19.24 16.3123 19.5172 16.5779C19.649 16.7092 19.7231 16.8877 19.7231 17.0737C19.7231 17.2598 19.649 17.4382 19.5172 17.5696L16.4089 20.6696C16.2806 20.8036 16.1028 20.879 15.9172 20.8779C15.7313 20.881 15.5527 20.8053 15.4256 20.6696Z" fill="white"/>
<path d="M20.2672 13.9029H21.2756C23.3724 13.9485 25.0378 15.6809 25.0006 17.7779V20.9529C25.0378 23.0499 23.3724 24.7823 21.2756 24.8279L10.5589 24.7612C8.46202 24.7157 6.79668 22.9833 6.83389 20.8862V17.7112C6.8093 16.6997 7.18826 15.72 7.88712 14.9883C8.58599 14.2566 9.5473 13.8331 10.5589 13.8112H11.5672C11.9538 13.8112 12.2672 14.1246 12.2672 14.5112C12.2672 14.8978 11.9538 15.2112 11.5672 15.2112H10.5589C9.91777 15.2307 9.31112 15.506 8.87431 15.9757C8.43749 16.4454 8.20687 17.0704 8.23389 17.7112V20.8612C8.20687 21.5021 8.43749 22.1271 8.87431 22.5968C9.31112 23.0665 9.91777 23.3418 10.5589 23.3612L21.2756 23.4779C21.9167 23.4584 22.5233 23.1831 22.9601 22.7134C23.397 22.2437 23.6276 21.6187 23.6006 20.9779V17.8029C23.6276 17.1621 23.397 16.5371 22.9601 16.0674C22.5233 15.5977 21.9167 15.3224 21.2756 15.3029H20.2672C19.8806 15.3029 19.5672 14.9895 19.5672 14.6029C19.5672 14.2163 19.8806 13.9029 20.2672 13.9029Z" fill="white"/>
</svg>
