<svg width="37" height="38" viewBox="0 0 37 38" fill="none" xmlns="http://www.w3.org/2000/svg">
<path d="M0 9.30718C0 4.38027 3.99405 0.38623 8.92095 0.38623H28.0791C33.006 0.38623 37 4.38028 37 9.30718V28.4653C37 33.3922 33.006 37.3862 28.0791 37.3862H8.92095C3.99404 37.3862 0 33.3922 0 28.4653V9.30718Z" fill="white"/>
<path d="M22 8.15186H14C10.5 8.15186 9 10.1519 9 13.1519V23.1519C9 26.1519 10.5 28.1519 14 28.1519H22C25.5 28.1519 27 26.1519 27 23.1519V13.1519C27 10.1519 25.5 8.15186 22 8.15186ZM14 18.4019H18C18.41 18.4019 18.75 18.7419 18.75 19.1519C18.75 19.5619 18.41 19.9019 18 19.9019H14C13.59 19.9019 13.25 19.5619 13.25 19.1519C13.25 18.7419 13.59 18.4019 14 18.4019ZM22 23.9019H14C13.59 23.9019 13.25 23.5619 13.25 23.1519C13.25 22.7419 13.59 22.4019 14 22.4019H22C22.41 22.4019 22.75 22.7419 22.75 23.1519C22.75 23.5619 22.41 23.9019 22 23.9019ZM24.5 15.4019H22.5C20.98 15.4019 19.75 14.1719 19.75 12.6519V10.6519C19.75 10.2419 20.09 9.90186 20.5 9.90186C20.91 9.90186 21.25 10.2419 21.25 10.6519V12.6519C21.25 13.3419 21.81 13.9019 22.5 13.9019H24.5C24.91 13.9019 25.25 14.2419 25.25 14.6519C25.25 15.0619 24.91 15.4019 24.5 15.4019Z" fill="#CD929D"/>
</svg>
