<svg width="32" height="33" viewBox="0 0 32 33" fill="none" xmlns="http://www.w3.org/2000/svg">
<rect y="0.88623" width="32" height="32" rx="8" fill="white"/>
<path d="M15.9999 20.4945C14.0083 20.4945 12.3916 18.8778 12.3916 16.8862C12.3916 14.8945 14.0083 13.2778 15.9999 13.2778C17.9916 13.2778 19.6083 14.8945 19.6083 16.8862C19.6083 18.8778 17.9916 20.4945 15.9999 20.4945ZM15.9999 14.5278C14.6999 14.5278 13.6416 15.5862 13.6416 16.8862C13.6416 18.1862 14.6999 19.2445 15.9999 19.2445C17.2999 19.2445 18.3583 18.1862 18.3583 16.8862C18.3583 15.5862 17.2999 14.5278 15.9999 14.5278Z" fill="#CD929D"/>
<path d="M15.9999 24.403C12.8666 24.403 9.90824 22.5696 7.8749 19.3863C6.99157 18.0113 6.99157 15.7696 7.8749 14.3863C9.91657 11.203 12.8749 9.36963 15.9999 9.36963C19.1249 9.36963 22.0832 11.203 24.1166 14.3863C24.9999 15.7613 24.9999 18.003 24.1166 19.3863C22.0832 22.5696 19.1249 24.403 15.9999 24.403ZM15.9999 10.6196C13.3082 10.6196 10.7332 12.2363 8.93324 15.0613C8.30824 16.0363 8.30824 17.7363 8.93324 18.7113C10.7332 21.5363 13.3082 23.153 15.9999 23.153C18.6916 23.153 21.2666 21.5363 23.0666 18.7113C23.6916 17.7363 23.6916 16.0363 23.0666 15.0613C21.2666 12.2363 18.6916 10.6196 15.9999 10.6196Z" fill="#CD929D"/>
</svg>
