<svg width="25" height="24" viewBox="0 0 25 24" fill="none" xmlns="http://www.w3.org/2000/svg">
<g id="User Interface/kebab menu">
<rect x="24.5" width="24" height="24" rx="12" transform="rotate(90 24.5 0)" fill="black" fill-opacity="0.05"/>
<g id="kebab menu">
<path id="Ellipse 106 (Stroke)" fill-rule="evenodd" clip-rule="evenodd" d="M6.5 14C5.39543 14 4.5 13.1046 4.5 12C4.5 10.8954 5.39543 10 6.5 10C7.60457 10 8.5 10.8954 8.5 12C8.5 13.1046 7.60457 14 6.5 14Z" fill="#666666"/>
<path id="Ellipse 106 (Stroke)_2" fill-rule="evenodd" clip-rule="evenodd" d="M12.5 14C11.3954 14 10.5 13.1046 10.5 12C10.5 10.8954 11.3954 10 12.5 10C13.6046 10 14.5 10.8954 14.5 12C14.5 13.1046 13.6046 14 12.5 14Z" fill="#666666"/>
<path id="Ellipse 106 (Stroke)_3" fill-rule="evenodd" clip-rule="evenodd" d="M18.5 14C17.3954 14 16.5 13.1046 16.5 12C16.5 10.8954 17.3954 10 18.5 10C19.6046 10 20.5 10.8954 20.5 12C20.5 13.1046 19.6046 14 18.5 14Z" fill="#666666"/>
</g>
</g>
</svg>
