<svg width="20" height="18" viewBox="0 0 20 18" fill="none" xmlns="http://www.w3.org/2000/svg">
<g id="Hide">
<path id="Stroke 1" d="M7.76045 10.906C7.18545 10.332 6.83545 9.55199 6.83545 8.67699C6.83545 6.92399 8.24745 5.51099 9.99945 5.51099C10.8664 5.51099 11.6644 5.86199 12.2294 6.43599" stroke="#CD929D" stroke-width="1.5" stroke-linecap="round" stroke-linejoin="round"/>
<path id="Stroke 3" d="M13.1046 9.23804C12.8726 10.528 11.8566 11.546 10.5676 11.78" stroke="#CD929D" stroke-width="1.5" stroke-linecap="round" stroke-linejoin="round"/>
<path id="Stroke 5" d="M4.65451 14.0115C3.06751 12.7655 1.72351 10.9455 0.749512 8.67654C1.73351 6.39754 3.08651 4.56754 4.68351 3.31154C6.27051 2.05554 8.10151 1.37354 9.99951 1.37354C11.9085 1.37354 13.7385 2.06554 15.3355 3.33054" stroke="#CD929D" stroke-width="1.5" stroke-linecap="round" stroke-linejoin="round"/>
<path id="Stroke 7" d="M17.4475 5.53003C18.1355 6.44403 18.7405 7.49903 19.2495 8.67603C17.2825 13.233 13.8065 15.978 9.99953 15.978C9.13653 15.978 8.28553 15.838 7.46753 15.565" stroke="#CD929D" stroke-width="1.5" stroke-linecap="round" stroke-linejoin="round"/>
<path id="Stroke 9" d="M17.8868 0.788818L2.11279 16.5628" stroke="#CD929D" stroke-width="1.5" stroke-linecap="round" stroke-linejoin="round"/>
</g>
</svg>
