<svg width="48" height="48" viewBox="0 0 48 48" fill="none" xmlns="http://www.w3.org/2000/svg">
<rect width="48" height="48" rx="8" fill="#FAF4F5"/>
<g clip-path="url(#clip0_114_8373)">
<path d="M24 22.52C23.59 22.52 23.25 22.18 23.25 21.77V18.44C23.25 18.03 23.59 17.69 24 17.69C24.41 17.69 24.75 18.03 24.75 18.44V21.77C24.75 22.19 24.41 22.52 24 22.52Z" fill="#CD929D"/>
<path d="M24.0201 32.35C21.4401 32.35 18.8701 31.94 16.4201 31.12C15.5101 30.82 14.8201 30.17 14.5201 29.35C14.2201 28.53 14.3201 27.59 14.8101 26.77L16.0801 24.65C16.3601 24.18 16.6101 23.3 16.6101 22.75V20.65C16.6101 16.56 19.9301 13.24 24.0201 13.24C28.1101 13.24 31.4301 16.56 31.4301 20.65V22.75C31.4301 23.29 31.6801 24.18 31.9601 24.65L33.2301 26.77C33.7001 27.55 33.7801 28.48 33.4701 29.33C33.1601 30.18 32.4801 30.83 31.6201 31.12C29.1701 31.95 26.6001 32.35 24.0201 32.35ZM24.0201 14.75C20.7601 14.75 18.1101 17.4 18.1101 20.66V22.76C18.1101 23.57 17.7901 24.74 17.3701 25.43L16.1001 27.56C15.8401 27.99 15.7801 28.45 15.9301 28.85C16.0801 29.25 16.4201 29.55 16.9001 29.71C21.5001 31.24 26.5601 31.24 31.1601 29.71C31.5901 29.57 31.9201 29.25 32.0701 28.83C32.2301 28.41 32.1801 27.95 31.9501 27.56L30.6801 25.44C30.2601 24.75 29.9401 23.58 29.9401 22.77V20.67C29.9301 17.4 27.2801 14.75 24.0201 14.75Z" fill="#CD929D"/>
<path d="M23.9999 34.9C22.9299 34.9 21.8799 34.46 21.1199 33.7C20.3599 32.94 19.9199 31.89 19.9199 30.82H21.4199C21.4199 31.5 21.6999 32.16 22.1799 32.64C22.6599 33.12 23.3199 33.4 23.9999 33.4C25.4199 33.4 26.5799 32.24 26.5799 30.82H28.0799C28.0799 33.07 26.2499 34.9 23.9999 34.9Z" fill="#CD929D"/>
</g>
<defs>
<clipPath id="clip0_114_8373">
<rect width="24" height="24" fill="white" transform="translate(12 12)"/>
</clipPath>
</defs>
</svg>
