<svg width="48" height="48" viewBox="0 0 48 48" fill="none" xmlns="http://www.w3.org/2000/svg">
<rect width="48" height="48" rx="8" fill="#FAF4F5"/>
<path fill-rule="evenodd" clip-rule="evenodd" d="M18.4423 14H29.5623C32.0954 14.0869 34.0809 16.2066 34.0023 18.74V25.26C34.0399 26.4835 33.5883 27.6716 32.7475 28.5612C31.9067 29.4508 30.746 29.9686 29.5223 30H20.0023C19.3434 30.0136 18.7187 30.2953 18.2723 30.78L15.9023 33.31C15.7015 33.529 15.4193 33.6556 15.1223 33.66C14.8154 33.6522 14.5245 33.522 14.3141 33.2985C14.1038 33.075 13.9915 32.7767 14.0023 32.47V18.74C13.9236 16.2066 15.9091 14.0869 18.4423 14ZM29.5623 28.5C31.2672 28.4137 32.5815 26.9653 32.5023 25.26V18.74C32.5815 17.0347 31.2672 15.5863 29.5623 15.5H18.4423C16.7373 15.5863 15.423 17.0347 15.5023 18.74V31.54L17.1323 29.76C17.8777 28.9671 18.914 28.5121 20.0023 28.5H29.5623Z" fill="#CD929D"/>
<path d="M20.2523 20.75H25.2523C25.6665 20.75 26.0023 20.4142 26.0023 20C26.0023 19.5858 25.6665 19.25 25.2523 19.25H20.2523C19.838 19.25 19.5023 19.5858 19.5023 20C19.5023 20.4142 19.838 20.75 20.2523 20.75Z" fill="#CD929D"/>
<path d="M27.7523 23.25H20.2523C19.838 23.25 19.5023 23.5858 19.5023 24C19.5023 24.4142 19.838 24.75 20.2523 24.75H27.7523C28.1665 24.75 28.5023 24.4142 28.5023 24C28.5023 23.5858 28.1665 23.25 27.7523 23.25Z" fill="#CD929D"/>
</svg>
