<svg width="32" height="32" viewBox="0 0 32 32" fill="none" xmlns="http://www.w3.org/2000/svg">
<rect width="32" height="32" rx="5" fill="#F8F8F9"/>
<path d="M11.5344 22L18.7184 10.8H20.4624L13.2784 22H11.5344ZM18.3344 22.16C17.9184 22.16 17.5344 22.0587 17.1824 21.856C16.841 21.6533 16.569 21.3813 16.3664 21.04C16.1637 20.6987 16.0624 20.3147 16.0624 19.888C16.0624 19.4613 16.1637 19.0827 16.3664 18.752C16.569 18.4107 16.841 18.1387 17.1824 17.936C17.5237 17.7333 17.9077 17.632 18.3344 17.632C18.761 17.632 19.145 17.7333 19.4864 17.936C19.8384 18.1387 20.1157 18.4107 20.3184 18.752C20.521 19.0827 20.6224 19.4613 20.6224 19.888C20.6224 20.3147 20.521 20.6987 20.3184 21.04C20.1157 21.3813 19.8437 21.6533 19.5024 21.856C19.161 22.0587 18.7717 22.16 18.3344 22.16ZM18.3344 20.8C18.601 20.8 18.8144 20.7147 18.9744 20.544C19.145 20.3733 19.2304 20.1547 19.2304 19.888C19.2304 19.632 19.145 19.4187 18.9744 19.248C18.8037 19.0773 18.5904 18.992 18.3344 18.992C18.0784 18.992 17.8704 19.0773 17.7104 19.248C17.5504 19.4187 17.4704 19.632 17.4704 19.888C17.4704 20.1547 17.5504 20.3733 17.7104 20.544C17.8704 20.7147 18.0784 20.8 18.3344 20.8ZM13.6464 15.168C13.2304 15.168 12.8464 15.0667 12.4944 14.864C12.153 14.6613 11.881 14.3893 11.6784 14.048C11.4757 13.7067 11.3744 13.3227 11.3744 12.896C11.3744 12.4693 11.4757 12.0907 11.6784 11.76C11.881 11.4187 12.153 11.1467 12.4944 10.944C12.8357 10.7413 13.2197 10.64 13.6464 10.64C14.073 10.64 14.457 10.7413 14.7984 10.944C15.1504 11.1467 15.4277 11.4187 15.6304 11.76C15.833 12.0907 15.9344 12.4693 15.9344 12.896C15.9344 13.3227 15.833 13.7067 15.6304 14.048C15.4277 14.3893 15.1557 14.6613 14.8144 14.864C14.473 15.0667 14.0837 15.168 13.6464 15.168ZM13.6464 13.808C13.913 13.808 14.1264 13.7227 14.2864 13.552C14.4464 13.3813 14.5264 13.1627 14.5264 12.896C14.5264 12.6293 14.441 12.416 14.2704 12.256C14.1104 12.0853 13.9024 12 13.6464 12C13.3904 12 13.1824 12.0853 13.0224 12.256C12.8624 12.416 12.7824 12.6293 12.7824 12.896C12.7824 13.1627 12.8624 13.3813 13.0224 13.552C13.1824 13.7227 13.3904 13.808 13.6464 13.808Z" fill="#6C757D"/>
</svg>
