<svg width="36" height="36" viewBox="0 0 36 36" fill="none" xmlns="http://www.w3.org/2000/svg">
<rect width="36" height="36" rx="8" fill="#F5EAEC"/>
<path d="M28.3599 14.27L28.0699 11.5C27.6499 8.48 26.2799 7.25 23.3499 7.25H20.9899H19.5099H16.4699H14.9899H12.5899C9.64989 7.25 8.28989 8.48 7.85989 11.53L7.58989 14.28C7.48989 15.35 7.77989 16.39 8.40989 17.2C9.16989 18.19 10.3399 18.75 11.6399 18.75C12.8999 18.75 14.1099 18.12 14.8699 17.11C15.5499 18.12 16.7099 18.75 17.9999 18.75C19.2899 18.75 20.4199 18.15 21.1099 17.15C21.8799 18.14 23.0699 18.75 24.3099 18.75C25.6399 18.75 26.8399 18.16 27.5899 17.12C28.1899 16.32 28.4599 15.31 28.3599 14.27Z" fill="#CD929D"/>
<path d="M17.3501 22.66C16.0801 22.79 15.1201 23.87 15.1201 25.15V27.89C15.1201 28.16 15.3401 28.38 15.6101 28.38H20.3801C20.6501 28.38 20.8701 28.16 20.8701 27.89V25.5C20.8801 23.41 19.6501 22.42 17.3501 22.66Z" fill="#CD929D"/>
<path d="M27.3699 20.4V23.38C27.3699 26.14 25.1299 28.38 22.3699 28.38C22.0999 28.38 21.8799 28.16 21.8799 27.89V25.5C21.8799 24.22 21.4899 23.22 20.7299 22.54C20.0599 21.93 19.1499 21.63 18.0199 21.63C17.7699 21.63 17.5199 21.64 17.2499 21.67C15.4699 21.85 14.1199 23.35 14.1199 25.15V27.89C14.1199 28.16 13.8999 28.38 13.6299 28.38C10.8699 28.38 8.62988 26.14 8.62988 23.38V20.42C8.62988 19.72 9.31988 19.25 9.96988 19.48C10.2399 19.57 10.5099 19.64 10.7899 19.68C10.9099 19.7 11.0399 19.72 11.1599 19.72C11.3199 19.74 11.4799 19.75 11.6399 19.75C12.7999 19.75 13.9399 19.32 14.8399 18.58C15.6999 19.32 16.8199 19.75 17.9999 19.75C19.1899 19.75 20.2899 19.34 21.1499 18.6C22.0499 19.33 23.1699 19.75 24.3099 19.75C24.4899 19.75 24.6699 19.74 24.8399 19.72C24.9599 19.71 25.0699 19.7 25.1799 19.68C25.4899 19.64 25.7699 19.55 26.0499 19.46C26.6999 19.24 27.3699 19.72 27.3699 20.4Z" fill="#CD929D"/>
</svg>
