<svg width="20" height="18" viewBox="0 0 20 18" fill="none" xmlns="http://www.w3.org/2000/svg">
<path d="M7.76045 10.906C7.18545 10.332 6.83545 9.55199 6.83545 8.67699C6.83545 6.92399 8.24745 5.51099 9.99945 5.51099C10.8664 5.51099 11.6644 5.86199 12.2294 6.43599" stroke="#6C757D" stroke-width="1.5" stroke-linecap="round" stroke-linejoin="round"/>
<path d="M13.1044 9.23804C12.8724 10.528 11.8564 11.546 10.5674 11.78" stroke="#6C757D" stroke-width="1.5" stroke-linecap="round" stroke-linejoin="round"/>
<path d="M7.5 15.5C5.5 15 1.72351 10.9455 0.749512 8.67654C1.73351 6.39754 3.08651 4.56754 4.68351 3.31154C6.27051 2.05553 8.10151 1.37354 9.99951 1.37354C11.0409 1.37354 12.8806 2.15514 14.5 3.1091C16 4 17 5 17.5 5.5" stroke="#6C757D" stroke-width="1.5" stroke-linecap="round" stroke-linejoin="round"/>
<path d="M17.4477 5.53003C18.1357 6.44403 18.7407 7.49903 19.2497 8.67603C17.2827 13.233 13.8067 15.978 9.99977 15.978C9.13677 15.978 8.28577 15.838 7.46777 15.565" stroke="#6C757D" stroke-width="1.5" stroke-linecap="round" stroke-linejoin="round"/>
</svg>
