<svg width="21" height="20" viewBox="0 0 21 20" fill="none" xmlns="http://www.w3.org/2000/svg">
<path d="M5.28338 13.3337C5.37505 12.9253 5.20838 12.342 4.91671 12.0503L2.89171 10.0253C2.25838 9.39199 2.00838 8.71699 2.19171 8.13366C2.38338 7.55033 2.97505 7.15033 3.85838 7.00033L6.45838 6.56699C6.83338 6.50033 7.29171 6.16699 7.46671 5.82533L8.90005 2.95033C9.31671 2.12533 9.88338 1.66699 10.5 1.66699C11.1167 1.66699 11.6834 2.12533 12.1 2.95033L13.5334 5.82533C13.6417 6.04199 13.8667 6.25033 14.1084 6.39199L5.13338 15.367C5.01671 15.4837 4.81671 15.3753 4.85005 15.2087L5.28338 13.3337Z" fill="#F59E0B"/>
<path d="M16.0833 12.0496C15.7833 12.3496 15.6166 12.9246 15.7166 13.3329L16.2916 15.8413C16.5333 16.8829 16.3833 17.6663 15.8666 18.0413C15.6583 18.1913 15.4083 18.2663 15.1166 18.2663C14.6916 18.2663 14.1916 18.1079 13.6416 17.7829L11.1999 16.3329C10.8166 16.1079 10.1833 16.1079 9.79992 16.3329L7.35825 17.7829C6.43325 18.3246 5.64159 18.4163 5.13325 18.0413C4.94159 17.8996 4.79992 17.7079 4.70825 17.4579L14.8416 7.32459C15.2249 6.94126 15.7666 6.76626 16.2916 6.85792L17.1333 6.99959C18.0166 7.14959 18.6083 7.54959 18.7999 8.13292C18.9833 8.71626 18.7333 9.39126 18.0999 10.0246L16.0833 12.0496Z" fill="#F59E0B"/>
</svg>
