<svg width="946" height="330" viewBox="0 0 946 330" fill="none" xmlns="http://www.w3.org/2000/svg">
<rect x="582" y="15" width="117" height="142" stroke="white" stroke-width="30"/>
<path d="M733.5 178L679.347 117.937L652.797 91L626 116L648.5 139.5L676.5 166L733.5 225V178Z" fill="white"/>
<path fill-rule="evenodd" clip-rule="evenodd" d="M818.961 328.073H851.784V118.106H818.961V328.073ZM798.374 101.471L944.981 103.702L945.482 75.4053H925.935C923.68 74.6535 922.427 72.1474 922.427 68.3883C922.427 63.3763 924.432 60.8702 928.191 60.8702C930.947 60.8702 932.701 62.6244 933.704 66.1329L944.981 60.8702C941.723 53.1015 936.21 49.0918 928.191 49.0918C917.415 49.0918 909.395 57.863 909.395 69.1402C909.395 70.8108 909.707 71.7115 910.245 73.2705L910.246 73.2712L910.248 73.278C910.355 73.5878 910.471 73.9236 910.596 74.2966L798.374 72.4963V101.471ZM747.13 328.073H719.225C692.411 328.073 676.873 313.151 676.873 287.338V174.491L714.085 213.009V268.735C714.085 285.776 716.218 294.492 742.03 294.492H747.13H752.305C764.083 294.492 765.343 287.946 765.343 271.657V216.273H798.374V281.43C798.374 294.712 794.615 305.739 787.348 314.51C779.078 324.785 766.84 328.073 752.305 328.073H747.13ZM798.374 207.537H765.343V178.718H798.374V207.537Z" fill="#CD929D"/>
<path d="M176.055 5.28516H210.675L317.047 60.9833V5.28516H351.668V175.984H317.047V97.6785L210.675 42.308V175.984H176.055V5.28516Z" fill="white"/>
<path d="M0.822266 4.08398L135.792 5.17614V175.875H103.025V102.553L33.6984 101.46V174.782H0.822266V4.08398ZM103.025 74.0482V36.1979L33.6984 35.1057V72.956L103.025 74.0482Z" fill="white"/>
<path d="M392.098 4.08398L527.068 5.17614V175.875H494.301V102.553L424.974 101.46V174.782H392.098V4.08398ZM494.301 74.0482V36.1979L424.974 35.1057V72.956L494.301 74.0482Z" fill="white"/>
<path d="M765.369 4.08398L900.339 5.17614V175.875H867.572V102.553L798.245 101.46V174.782H765.369V4.08398ZM867.572 74.0482V36.1979L798.245 35.1057V72.956L867.572 74.0482Z" fill="white"/>
<path d="M102.967 203.001H75.117V176.947H102.967V203.001ZM60.7428 203.001H32.8928V176.947H60.7428V203.001ZM523.539 329.693L114.871 329.694C96.9028 329.694 84.3254 320.486 77.1383 302.069C71.5234 310.828 60.7427 315.544 45.2455 315.544C18.2939 315.544 1.5 294.994 1.5 264C1.5 230.535 17.8448 213.725 47.4916 213.725C47.4916 213.5 67.4807 213.5 107.459 213.5L107.459 276.689C107.459 291.513 115.095 299.598 130.368 299.598L523.539 299.597V329.693ZM75.117 266.28V236.634H54.4541C41.652 236.634 32.2189 246.482 32.2189 264C32.2189 279.722 41.2028 289.491 53.7802 289.491C67.0314 289.491 75.117 284.697 75.117 266.28Z" fill="#CD929D"/>
<path d="M635.637 210.882H607.787V185.053H635.637V210.882ZM593.188 210.882H565.338V185.053H593.188V210.882ZM653.829 278.485C653.829 293.758 649.113 306.111 639.68 315.544C630.471 324.977 617.894 329.693 602.397 329.693H521.766V299.597H553.884C551.413 293.084 550.29 286.122 550.29 278.71C550.29 247.491 569.83 227.726 601.049 227.726C616.771 227.726 629.573 232.218 639.23 241.202C648.888 249.962 653.829 262.539 653.829 278.485ZM622.61 279.384C622.61 261.641 615.872 252.881 602.621 252.881H600.375C594.086 252.881 589.145 255.576 585.552 261.191C582.632 265.908 581.06 271.747 581.06 278.261C581.06 285.672 582.632 291.512 586.001 296.229C589.819 301.619 595.209 304.314 602.172 304.314C608.685 304.314 613.851 301.843 617.669 296.678C621.038 291.961 622.61 286.346 622.61 279.384Z" fill="#CD929D"/>
<path d="M798 72.5L901 74.1088V103L798 102V72.5Z" fill="#CD929D"/>
</svg>
