<svg width="154" height="154" viewBox="0 0 154 154" fill="none" xmlns="http://www.w3.org/2000/svg">
<g id="fi_6745509">
<path id="Vector" d="M70.1228 134.797C105.859 134.797 134.828 105.827 134.828 70.0915C134.828 34.3558 105.859 5.38623 70.1228 5.38623C34.387 5.38623 5.41748 34.3558 5.41748 70.0915C5.41748 105.827 34.387 134.797 70.1228 134.797Z" fill="#E1BDC3"/>
<path id="Vector_2" d="M70.1227 125.211C100.564 125.211 125.242 100.533 125.242 70.0915C125.242 39.6499 100.564 14.9722 70.1227 14.9722C39.6812 14.9722 15.0034 39.6499 15.0034 70.0915C15.0034 100.533 39.6812 125.211 70.1227 125.211Z" fill="#EFEFEF"/>
<path id="Vector_3" d="M115.656 67.695C115.654 56.2438 112.087 45.0773 105.449 35.7461C98.8114 26.4149 89.4329 19.382 78.6159 15.624C75.8056 15.1904 72.9663 14.9725 70.1228 14.9722C57.0931 14.9715 44.4844 19.5867 34.5341 27.9988C24.5838 36.411 17.9353 48.0761 15.7683 60.9243C13.6012 73.7725 16.0558 86.973 22.6965 98.1835C29.3372 109.394 39.7345 117.889 52.0436 122.162C54.8539 122.596 57.6933 122.814 60.5368 122.814C67.7752 122.814 74.9427 121.389 81.6301 118.619C88.3174 115.849 94.3937 111.789 99.512 106.67C104.63 101.552 108.69 95.4756 111.46 88.7882C114.23 82.1009 115.656 74.9334 115.656 67.695Z" fill="#F6F6F6"/>
<path id="Vector_4" d="M70.1229 72.4879C83.3583 72.4879 94.0878 61.7585 94.0878 48.523C94.0878 35.2876 83.3583 24.5581 70.1229 24.5581C56.8874 24.5581 46.158 35.2876 46.158 48.523C46.158 61.7585 56.8874 72.4879 70.1229 72.4879Z" fill="#FCD0AE"/>
<path id="Vector_5" d="M108.829 100.484C105.698 102.449 103.016 105.051 100.956 108.119C98.8962 111.188 97.504 114.655 96.8701 118.297C86.1002 124.265 73.6425 126.458 61.4818 124.525C49.3212 122.593 38.1571 116.646 29.7683 107.632C31.1193 97.8899 35.9492 88.9651 43.3663 82.5055C50.7835 76.0459 60.2872 72.4877 70.1228 72.4878C78.7003 72.4879 87.0591 75.1941 94.009 80.2211C100.959 85.2481 106.146 92.3397 108.831 100.486L108.829 100.484Z" fill="#CD929D"/>
<path id="Vector_6" d="M118.088 142.175C130.286 142.175 140.175 132.286 140.175 120.088C140.175 107.889 130.286 98 118.088 98C105.889 98 96 107.889 96 120.088C96 132.286 105.889 142.175 118.088 142.175Z" fill="#D23F34"/>
<path id="Vector_7" d="M105.602 113.626C104.567 115.622 104.029 117.839 104.032 120.088C104.057 123.808 105.546 127.369 108.176 129.999C110.807 132.63 114.368 134.119 118.088 134.144C120.245 134.179 122.377 133.682 124.296 132.698L105.604 113.622L105.602 113.626Z" fill="#F2F2F2"/>
<path id="Vector_8" d="M111.351 107.749L129.885 127.6C131.319 125.354 132.101 122.753 132.144 120.088C132.144 117.649 131.51 115.251 130.303 113.131C129.096 111.012 127.359 109.242 125.261 107.997C123.163 106.753 120.778 106.075 118.339 106.032C115.9 105.988 113.492 106.58 111.351 107.749Z" fill="#F2F2F2"/>
<path id="Vector_9" d="M29.7634 107.632C34.9166 113.185 41.1616 117.613 48.1068 120.637C55.052 123.662 62.5474 125.219 70.1227 125.211V72.4878C60.2862 72.4866 50.7814 76.0442 43.3633 82.5039C35.9451 88.9636 31.1145 97.8891 29.7634 107.632Z" fill="#D7A8B0"/>
<path id="Vector_10" d="M46.158 48.523C46.158 54.8789 48.6828 60.9745 53.1771 65.4688C57.6714 69.9631 63.767 72.4879 70.1229 72.4879V24.5581C63.767 24.5581 57.6714 27.083 53.1771 31.5773C48.6828 36.0716 46.158 42.1671 46.158 48.523Z" fill="#FBE1CA"/>
</g>
</svg>
