<svg width="134" height="134" viewBox="0 0 134 134" fill="none" xmlns="http://www.w3.org/2000/svg">
<g clip-path="url(#clip0_2702_59501)">
<path d="M67.3125 133.158C104.039 133.158 133.812 103.385 133.812 66.658C133.812 29.931 104.039 0.157959 67.3125 0.157959C30.5856 0.157959 0.8125 29.931 0.8125 66.658C0.8125 103.385 30.5856 133.158 67.3125 133.158Z" fill="#EDEDED"/>
<path d="M67.3123 112.328C98.2873 112.328 123.397 87.2182 123.397 56.2432C123.397 25.2682 98.2873 0.157959 67.3123 0.157959C36.3373 0.157959 11.2271 25.2682 11.2271 56.2432C11.2271 87.2182 36.3373 112.328 67.3123 112.328Z" fill="#F6F6F6"/>
<path d="M56.3708 80.6204C78.5899 80.6204 96.6021 62.6082 96.6021 40.3892C96.6021 18.1701 78.5899 0.157959 56.3708 0.157959C34.1518 0.157959 16.1396 18.1701 16.1396 40.3892C16.1396 62.6082 34.1518 80.6204 56.3708 80.6204Z" fill="#B76271"/>
<path d="M56.3715 74.6488C37.4806 74.6488 22.1118 59.28 22.1118 40.3891C22.1116 21.4982 37.4803 6.12939 56.3715 6.12939C75.2625 6.12939 90.6312 21.4982 90.6312 40.3891C90.631 59.28 75.2622 74.6488 56.3715 74.6488Z" fill="#CD929D"/>
<path d="M105.742 92.0285V117.073C105.742 118.455 105.641 119.815 105.441 121.147C94.6457 128.717 81.5005 133.158 67.3129 133.158C53.204 133.158 40.124 128.766 29.3617 121.272C29.044 119.055 28.8813 116.81 28.8813 114.549V86.9608C28.8813 84.8707 29.7282 82.9788 31.099 81.6083C31.4437 81.2636 31.8209 80.9513 32.2253 80.6799C33.4304 79.8684 34.8853 79.3933 36.4488 79.3933C40.6287 79.3933 44.0163 82.7806 44.0163 86.9608V80.6204C44.0163 78.5303 44.8632 76.6413 46.234 75.2705C47.6047 73.8997 49.4966 73.0529 51.5864 73.0529C55.7637 73.0529 59.1539 76.4431 59.1539 80.6204V78.0472C59.1539 75.9571 60.0008 74.0652 61.3687 72.6947C62.7395 71.3268 64.6313 70.4799 66.7211 70.4799C70.901 70.4799 74.2886 73.8673 74.2886 78.0474V45.397C74.2886 43.3069 75.1355 41.415 76.5034 40.0471C76.8481 39.7024 77.2253 39.3901 77.6326 39.1161C78.8893 38.2693 80.4147 37.7887 82.0541 37.8323C86.1825 37.9383 89.4234 41.4368 89.4234 45.5681V98.8061C89.4234 94.7374 90.9134 91.0188 93.3754 88.1606C93.6414 87.8512 93.9155 87.5554 94.2033 87.2675L94.2929 87.1779C98.5406 82.9952 105.742 86.0651 105.742 92.0285Z" fill="#F9D5A9"/>
<path d="M77.6328 39.1157V93.7408C77.6328 94.6643 76.8841 95.4129 75.9607 95.4129C75.0372 95.4129 74.2886 94.6643 74.2886 93.7408V45.3966C74.2886 43.3065 75.1354 41.4146 76.5033 40.0467C76.8483 39.702 77.2257 39.39 77.6328 39.1157Z" fill="#E5A379"/>
<path d="M62.498 71.7661V96.8135C62.498 97.737 61.7494 98.4856 60.8259 98.4856C59.9025 98.4856 59.1538 97.737 59.1538 96.8135V78.047C59.1538 75.9569 60.0006 74.065 61.3686 72.6971C61.7135 72.3524 62.0907 72.0402 62.498 71.7661Z" fill="#E5A379"/>
<path d="M47.3608 74.3391V98.7134C47.3608 99.6369 46.6122 100.386 45.6887 100.386C44.7652 100.386 44.0166 99.6369 44.0166 98.7134V80.62C44.0166 78.5299 44.8634 76.638 46.2314 75.2701C46.5763 74.9254 46.9535 74.6132 47.3608 74.3391Z" fill="#E5A379"/>
<path d="M32.2253 80.6799V123.159C31.2535 122.553 30.2981 121.924 29.3617 121.272C29.044 119.055 28.8813 116.81 28.8813 114.549V86.9608C28.8813 84.8707 29.7282 82.9789 31.099 81.6083C31.4437 81.2636 31.8209 80.9514 32.2253 80.6799Z" fill="#E5A379"/>
<path d="M93.3759 88.1604V114.967C93.3759 116.058 92.4914 116.943 91.3999 116.943C90.3083 116.943 89.4238 116.058 89.4238 114.967V98.8059C89.4238 94.7371 90.9141 91.0186 93.3759 88.1604Z" fill="#E5A379"/>
<path d="M71.0352 48.3994L63.0248 40.3888L71.0352 32.3784C71.8049 31.6087 71.8049 30.3603 71.0352 29.5906L67.1694 25.7247C66.3997 24.9551 65.1513 24.9551 64.3816 25.7247L56.3712 33.7351L48.3605 25.7245C47.5908 24.9548 46.3424 24.9548 45.5727 25.7245L41.7071 29.5901C40.9375 30.3597 40.9375 31.6082 41.7071 32.3779L49.7178 40.3885L41.7074 48.3989C40.9377 49.1686 40.9377 50.417 41.7074 51.1867L45.573 55.0523C46.3427 55.822 47.5911 55.822 48.3608 55.0523L56.3712 47.0419L64.3818 55.0525C65.1515 55.8222 66.3999 55.8222 67.1696 55.0525L71.0352 51.187C71.8049 50.4178 71.8049 49.1694 71.0352 48.3994Z" fill="white"/>
</g>
<defs>
<clipPath id="clip0_2702_59501">
<rect width="133" height="133" fill="white" transform="translate(0.8125 0.157959)"/>
</clipPath>
</defs>
</svg>
