<svg width="137" height="137" viewBox="0 0 137 137" fill="none" xmlns="http://www.w3.org/2000/svg">
<g clip-path="url(#clip0_331_24024)">
<path d="M130.086 88.4372C130.145 88.2098 130.202 87.9808 130.258 87.7515C130.202 87.9808 130.144 88.209 130.086 88.4372Z" fill="#BFE5FE"/>
<path d="M68.3149 8.91284C43.7841 8.91284 28.6741 22.7486 28.6325 22.772C27.6857 27.142 26.0391 33.4837 26.0391 38.1371C26.0391 73.3426 55.7278 101.876 90.9333 101.876C105.936 101.876 119.721 94.89 130.61 86.2169C130.655 85.9452 132.06 80.3482 132.06 72.6582C132.06 37.4527 103.52 8.91284 68.3149 8.91284Z" fill="#F7F7F7"/>
<path d="M90.9287 100.076C55.7232 100.076 27.1834 71.5362 27.1834 36.3307C27.1834 31.6773 27.6867 27.142 28.6333 22.772C28.6319 22.773 28.6303 22.7744 28.629 22.7754C13.9689 34.4547 4.57031 52.4575 4.57031 72.6581C4.57031 96.8514 18.048 117.897 37.9049 128.696L103.955 125.514C116.71 116.894 126.178 103.777 130.085 88.437C130.143 88.2088 130.201 87.9806 130.256 87.7513C130.283 87.6422 130.523 86.6208 130.611 86.2166C119.722 94.8901 105.932 100.076 90.9287 100.076Z" fill="#F2F4F7"/>
<path d="M69.9258 51.145V134.022C78.8348 133.801 87.289 134.11 94.9283 130.594C98.0828 129.142 101.098 127.439 103.95 125.512L107.256 51.145H69.9258Z" fill="#D7A8B0"/>
<path d="M94.9309 130.593H82.5619C76.1231 130.593 70.9034 125.373 70.9034 118.935V51.145H34.457L37.9048 128.695C46.9431 133.611 57.3031 136.404 68.3153 136.404C77.8173 136.404 86.8313 134.322 94.9309 130.593Z" fill="#CD929D"/>
<path d="M66.7237 24.5698L37.8074 53.4862L23.5586 39.2374C19.944 35.6228 19.944 29.741 23.5586 26.1264L39.3639 10.3211C42.9786 6.70645 48.8603 6.70645 52.475 10.3211L66.7237 24.5698ZM37.8074 42.7318L55.9694 24.5698L47.0977 15.6981C46.4479 15.0484 45.3907 15.0484 44.741 15.6981L28.9357 31.5034C28.2859 32.1532 28.2859 33.2104 28.9357 33.8601L37.8074 42.7318Z" fill="#CD929D"/>
<path d="M31.2773 39.6079L70.7201 0.165104L83.3676 12.8126L43.9248 52.2554L31.2773 39.6079Z" fill="#D7A8B0"/>
<path d="M13.3906 57.4893L32.9738 37.9061L45.6213 50.5536L26.0381 70.1368L13.3906 57.4893Z" fill="#B76271"/>
<path d="M70.8577 130.64C68.4077 130.64 66.4219 128.654 66.4219 126.205V71.7789C66.4219 69.3288 68.408 67.343 70.8577 67.343C73.3077 67.343 75.2936 69.3291 75.2936 71.7789V126.205C75.2936 128.654 73.3077 130.64 70.8577 130.64Z" fill="#B76271"/>
<path d="M53.1974 130.64C50.8516 130.64 48.8924 128.801 48.7708 126.431L45.9825 72.0057C45.8572 69.5589 47.739 67.4739 50.1856 67.3486C52.6374 67.2243 54.7174 69.1054 54.8427 71.5517L57.6311 125.977C57.7564 128.424 55.8745 130.509 53.428 130.635C53.3507 130.639 53.2736 130.64 53.1974 130.64Z" fill="#B76271"/>
<path d="M88.9477 130.64C88.8709 130.64 88.7944 130.638 88.7171 130.634C86.2702 130.509 84.3887 128.424 84.5137 125.977L87.3021 71.5515C87.4274 69.1047 89.5105 67.2231 91.9592 67.3482C94.406 67.4735 96.2876 69.5588 96.1626 72.0053L93.3742 126.431C93.2526 128.801 91.2932 130.64 88.9477 130.64Z" fill="#B76271"/>
<path d="M84.4644 24.4744L80.0032 31.3633C79.3564 32.3618 78.2477 32.9649 77.058 32.9649C74.1854 32.9649 72.5299 36.2284 74.2267 38.5461L77.6411 43.2105C78.449 44.3138 79.824 44.8476 81.1646 44.5777L89.1052 42.9796C89.9014 42.8193 90.7282 42.9401 91.4452 43.3214L98.15 46.8873C100.036 47.89 102.372 46.9902 103.098 44.9814L106.19 36.4225C106.797 34.7401 106.042 32.87 104.437 32.081L99.4639 29.6379C98.5976 29.2124 97.945 28.4488 97.6594 27.5268L96.4236 23.5365C95.8469 21.6741 93.8624 20.639 92.0051 21.2318L86.3425 23.0389C85.5695 23.2858 84.9056 23.7932 84.4644 24.4744Z" fill="white"/>
</g>
<defs>
<clipPath id="clip0_331_24024">
<rect width="136.246" height="136.246" fill="white" transform="translate(0.191406 0.157959)"/>
</clipPath>
</defs>
</svg>
