<svg width="189" height="189" viewBox="0 0 189 189" fill="none" xmlns="http://www.w3.org/2000/svg">
<g id="done 1">
<g id="Group">
<path id="Vector" fill-rule="evenodd" clip-rule="evenodd" d="M94.4998 47.3586C85.0904 47.3586 75.8924 50.1488 68.0688 55.3764C60.2452 60.6039 54.1475 68.034 50.5467 76.7271C46.9459 85.4202 46.0038 94.9859 47.8394 104.214C49.6751 113.443 54.2061 121.92 60.8595 128.573C67.5129 135.227 75.9899 139.758 85.2184 141.593C94.447 143.429 104.013 142.487 112.706 138.886C121.399 135.285 128.829 129.188 134.056 121.364C139.284 113.54 142.074 104.342 142.074 94.9331C142.06 82.3198 137.044 70.2271 128.125 61.3081C119.206 52.3892 107.113 47.3725 94.4998 47.3586ZM94.4998 109.555C93.356 110.635 91.8426 111.236 90.2698 111.236C88.6969 111.236 87.1835 110.635 86.0397 109.555L69.3809 92.8964L77.8931 84.4886L90.322 96.9175L111.211 76.0286L119.514 84.4886L94.4998 109.555Z" fill="#CD929D"/>
<path id="Vector_2" fill-rule="evenodd" clip-rule="evenodd" d="M174.139 81.8251C168.917 74.2007 163.695 66.1585 163.695 66.1585C163.695 66.1585 161.867 56.8107 160.039 47.9329C159.121 43.3592 156.871 39.1589 153.573 35.8603C150.274 32.5617 146.074 30.312 141.5 29.394L123.222 25.634L107.556 15.1896C103.679 12.6401 99.1401 11.2815 94.5001 11.2815C89.86 11.2815 85.3214 12.6401 81.4445 15.1896L65.7778 25.634L47.5 29.394C42.9263 30.312 38.7261 32.5617 35.4275 35.8603C32.1289 39.1589 29.8791 43.3592 28.9612 47.9329C27.1334 56.8629 25.2012 66.2629 25.2012 66.2629C25.2012 66.2629 19.9789 74.3051 14.7567 81.9296C12.2072 85.8065 10.8486 90.345 10.8486 94.9851C10.8486 99.6252 12.2072 104.164 14.7567 108.041C19.9789 115.665 25.2012 123.707 25.2012 123.707C25.2012 123.707 27.0812 133.107 28.9612 142.037C29.8976 146.592 32.1555 150.77 35.4527 154.048C38.7499 157.327 42.9402 159.561 47.5 160.472L65.83 164.232L81.4967 174.676C85.3736 177.226 89.9122 178.584 94.5523 178.584C99.1924 178.584 103.731 177.226 107.608 174.676L123.274 164.232L141.5 160.472C146.074 159.554 150.274 157.304 153.573 154.005C156.871 150.707 159.121 146.507 160.039 141.933C161.867 133.003 163.799 123.603 163.799 123.603C163.799 123.603 169.021 115.561 174.243 107.936C176.777 104.049 178.118 99.5051 178.099 94.8651C178.081 90.225 176.704 85.6918 174.139 81.8251ZM94.5001 154.414C82.7358 154.414 71.2357 150.926 61.4541 144.39C51.6725 137.854 44.0487 128.564 39.5467 117.695C35.0447 106.827 33.8668 94.8669 36.1618 83.3287C38.4569 71.7905 44.122 61.192 52.4405 52.8734C60.7591 44.5548 71.3577 38.8898 82.8959 36.5947C94.4341 34.2996 106.394 35.4775 117.262 39.9795C128.131 44.4815 137.421 52.1054 143.957 61.887C150.493 71.6686 153.981 83.1687 153.981 94.9329C153.954 110.7 147.678 125.813 136.529 136.962C125.38 148.111 110.267 154.386 94.5001 154.414Z" fill="#ECD5D9"/>
</g>
</g>
</svg>
