<svg width="189" height="189" viewBox="0 0 189 189" fill="none" xmlns="http://www.w3.org/2000/svg">
<g id="done 1">
<g id="Group">
<g id="Group 1171275071">
<path id="Vector" fill-rule="evenodd" clip-rule="evenodd" d="M94.5745 47C85.1651 47 75.9671 49.7902 68.1435 55.0177C60.3199 60.2453 54.2222 67.6754 50.6214 76.3685C47.0206 85.0616 46.0785 94.6272 47.9142 103.856C49.7498 113.084 54.2808 121.561 60.9343 128.215C67.5877 134.868 76.0646 139.399 85.2931 141.235C94.5217 143.07 104.087 142.128 112.78 138.527C121.474 134.927 128.904 128.829 134.131 121.005C139.359 113.182 142.149 103.984 142.149 94.5744C142.135 81.9612 137.118 69.8684 128.199 60.9495C119.28 52.0306 107.188 47.0138 94.5745 47Z" fill="#CD929D"/>
<path id="+" d="M76.7044 119.704L68.4799 111.48L111.532 68.4279L119.756 76.6524L76.7044 119.704ZM67.363 75.637L75.7906 67.2094L120.975 112.394L112.547 120.821L67.363 75.637Z" fill="white"/>
</g>
<path id="Vector_2" fill-rule="evenodd" clip-rule="evenodd" d="M174.139 81.8249C168.917 74.2004 163.695 66.1582 163.695 66.1582C163.695 66.1582 161.867 56.8104 160.039 47.9327C159.121 43.3589 156.871 39.1587 153.573 35.8601C150.274 32.5615 146.074 30.3118 141.5 29.3938L123.222 25.6338L107.556 15.1893C103.679 12.6398 99.1402 11.2812 94.5001 11.2812C89.86 11.2813 85.3214 12.6398 81.4445 15.1893L65.7779 25.6338L47.5001 29.3938C42.9263 30.3118 38.7261 32.5615 35.4275 35.8601C32.1289 39.1587 29.8792 43.3589 28.9612 47.9327C27.1334 56.8627 25.2012 66.2627 25.2012 66.2627C25.2012 66.2627 19.979 74.3049 14.7567 81.9293C12.2072 85.8062 10.8487 90.3448 10.8487 94.9849C10.8487 99.625 12.2072 104.164 14.7567 108.04C19.979 115.665 25.2012 123.707 25.2012 123.707C25.2012 123.707 27.0812 133.107 28.9612 142.037C29.8976 146.592 32.1555 150.769 35.4527 154.048C38.7499 157.327 42.9403 159.561 47.5001 160.472L65.8301 164.232L81.4967 174.676C85.3737 177.225 89.9122 178.584 94.5523 178.584C99.1924 178.584 103.731 177.225 107.608 174.676L123.275 164.232L141.5 160.472C146.074 159.554 150.274 157.304 153.573 154.005C156.871 150.707 159.121 146.506 160.039 141.933C161.867 133.003 163.799 123.603 163.799 123.603C163.799 123.603 169.021 115.56 174.243 107.936C176.777 104.049 178.118 99.5049 178.099 94.8648C178.081 90.2247 176.704 85.6916 174.139 81.8249ZM94.5001 154.414C82.7358 154.414 71.2358 150.925 61.4541 144.389C51.6725 137.854 44.0487 128.564 39.5467 117.695C35.0447 106.826 33.8668 94.8667 36.1619 83.3285C38.457 71.7903 44.122 61.1917 52.4406 52.8732C60.7592 44.5546 71.3577 38.8896 82.8959 36.5945C94.4341 34.2994 106.394 35.4773 117.263 39.9793C128.131 44.4813 137.421 52.1051 143.957 61.8867C150.493 71.6683 153.981 83.1684 153.981 94.9327C153.954 110.7 147.678 125.813 136.529 136.962C125.38 148.111 110.267 154.386 94.5001 154.414Z" fill="#ECD5D9"/>
</g>
</g>
</svg>
