<svg width="22" height="23" viewBox="0 0 22 23" fill="none" xmlns="http://www.w3.org/2000/svg">
<path d="M0 6.23013C0 3.30062 2.37484 0.925781 5.30435 0.925781H16.6957C19.6252 0.925781 22 3.30062 22 6.23013V17.6214C22 20.5509 19.6252 22.9258 16.6957 22.9258H5.30435C2.37484 22.9258 0 20.5509 0 17.6214V6.23013Z" fill="#FAF5F6"/>
<path d="M12.0869 12.4844H13.7445L14.4075 9.8322H12.0869V8.50611C12.0869 7.82318 12.0869 7.18003 13.4129 7.18003H14.4075V4.9522C14.1914 4.92369 13.3752 4.85938 12.5132 4.85938C10.713 4.85938 9.43469 5.95804 9.43469 7.97568V9.8322H7.44556V12.4844H9.43469V18.1202H12.0869V12.4844Z" fill="#CD929D"/>
</svg>
