<svg width="22" height="23" viewBox="0 0 22 23" fill="none" xmlns="http://www.w3.org/2000/svg">
<path d="M0 6.23013C0 3.30062 2.37484 0.925781 5.30435 0.925781H16.6957C19.6252 0.925781 22 3.30062 22 6.23013V17.6214C22 20.5509 19.6252 22.9258 16.6957 22.9258H5.30435C2.37484 22.9258 0 20.5509 0 17.6214V6.23013Z" fill="#FAF5F6"/>
<path d="M10.9573 9.50068C10.4297 9.50068 9.92378 9.71025 9.55074 10.0833C9.17771 10.4563 8.96814 10.9623 8.96814 11.4898C8.96814 12.0174 9.17771 12.5233 9.55074 12.8963C9.92378 13.2694 10.4297 13.4789 10.9573 13.4789C11.4848 13.4789 11.9908 13.2694 12.3638 12.8963C12.7368 12.5233 12.9464 12.0174 12.9464 11.4898C12.9464 10.9623 12.7368 10.4563 12.3638 10.0833C11.9908 9.71025 11.4848 9.50068 10.9573 9.50068ZM10.9573 8.17459C11.8365 8.17459 12.6798 8.52387 13.3015 9.1456C13.9232 9.76732 14.2725 10.6106 14.2725 11.4898C14.2725 12.3691 13.9232 13.2123 13.3015 13.834C12.6798 14.4557 11.8365 14.805 10.9573 14.805C10.078 14.805 9.23478 14.4557 8.61306 13.834C7.99133 13.2123 7.64205 12.3691 7.64205 11.4898C7.64205 10.6106 7.99133 9.76732 8.61306 9.1456C9.23478 8.52387 10.078 8.17459 10.9573 8.17459ZM15.2671 8.00883C15.2671 8.22864 15.1797 8.43945 15.0243 8.59488C14.8689 8.75032 14.6581 8.83764 14.4382 8.83764C14.2184 8.83764 14.0076 8.75032 13.8522 8.59488C13.6968 8.43945 13.6094 8.22864 13.6094 8.00883C13.6094 7.78902 13.6968 7.57821 13.8522 7.42278C14.0076 7.26735 14.2184 7.18003 14.4382 7.18003C14.6581 7.18003 14.8689 7.26735 15.0243 7.42278C15.1797 7.57821 15.2671 7.78902 15.2671 8.00883ZM10.9573 6.18546C9.3169 6.18546 9.04903 6.1901 8.28587 6.22392C7.76604 6.24845 7.41728 6.31807 7.09372 6.44405C6.82294 6.54346 6.57814 6.70281 6.37763 6.91017C6.1701 7.11067 6.01054 7.35546 5.91085 7.62626C5.78487 7.95115 5.71525 8.29924 5.69138 8.81841C5.6569 9.55041 5.65226 9.80634 5.65226 11.4898C5.65226 13.1308 5.6569 13.398 5.69072 14.1612C5.71525 14.6804 5.78487 15.0298 5.91018 15.3527C6.0229 15.6411 6.15551 15.8487 6.37564 16.0688C6.59909 16.2916 6.80662 16.4248 7.09173 16.5349C7.41927 16.6615 7.76803 16.7318 8.2852 16.7557C9.0172 16.7902 9.27314 16.7942 10.9566 16.7942C12.5976 16.7942 12.8648 16.7895 13.628 16.7557C14.1465 16.7312 14.4953 16.6615 14.8195 16.5362C15.09 16.4363 15.3347 16.2771 15.5356 16.0701C15.759 15.8473 15.8923 15.6398 16.0024 15.354C16.1283 15.0278 16.1986 14.679 16.2225 14.1605C16.257 13.4292 16.261 13.1726 16.261 11.4898C16.261 9.84944 16.2563 9.58157 16.2225 8.81841C16.198 8.29991 16.1277 7.94982 16.0024 7.62626C15.9024 7.35575 15.7431 7.11106 15.5362 6.91017C15.3358 6.70253 15.091 6.54295 14.8202 6.44339C14.4953 6.31741 14.1465 6.24779 13.628 6.22392C12.8967 6.18944 12.6407 6.18546 10.9566 6.18546M10.9566 4.85938C12.7581 4.85938 12.9829 4.86601 13.6903 4.89916C14.3958 4.93231 14.8772 5.04304 15.2995 5.20747C15.7372 5.37589 16.1058 5.60397 16.4745 5.97196C16.8116 6.30341 17.0725 6.70435 17.2389 7.14687C17.4027 7.56923 17.5141 8.0506 17.5473 8.75674C17.5784 9.46355 17.587 9.68832 17.587 11.4898C17.587 13.2913 17.5804 13.5161 17.5473 14.2229C17.5141 14.929 17.4027 15.4097 17.2389 15.8327C17.0729 16.2755 16.812 16.6765 16.4745 17.0077C16.1429 17.3447 15.742 17.6056 15.2995 17.7721C14.8772 17.9359 14.3958 18.0473 13.6903 18.0805C12.9829 18.1116 12.7581 18.1202 10.9566 18.1202C9.15512 18.1202 8.93035 18.1136 8.22288 18.0805C7.5174 18.0473 7.03669 17.9359 6.61367 17.7721C6.17098 17.606 5.76997 17.3451 5.43876 17.0077C5.10156 16.6762 4.84067 16.2753 4.67427 15.8327C4.50983 15.4104 4.39911 14.929 4.36595 14.2229C4.33413 13.5161 4.32617 13.2913 4.32617 11.4898C4.32617 9.68832 4.3328 9.46355 4.36595 8.75674C4.39911 8.0506 4.50983 7.5699 4.67427 7.14687C4.84019 6.70408 5.10114 6.30303 5.43876 5.97196C5.77006 5.63463 6.17104 5.37372 6.61367 5.20747C7.03603 5.04304 7.51674 4.93231 8.22288 4.89916C8.93101 4.86799 9.15578 4.85938 10.9573 4.85938" fill="#CD929D"/>
</svg>
