<svg width="22" height="23" viewBox="0 0 22 23" fill="none" xmlns="http://www.w3.org/2000/svg">
<path d="M0 6.15591C0 3.2264 2.37484 0.851562 5.30435 0.851562H16.6957C19.6252 0.851562 22 3.2264 22 6.15591V17.5472C22 20.4767 19.6252 22.8516 16.6957 22.8516H5.30435C2.37484 22.8516 0 20.4767 0 17.5472V6.15591Z" fill="#FAF5F6"/>
<path d="M7.60064 6.54525C7.60047 6.89688 7.46061 7.23404 7.21185 7.48256C6.96308 7.73108 6.62578 7.87059 6.27415 7.87042C5.92251 7.87024 5.58535 7.73039 5.33683 7.48162C5.08832 7.23285 4.9488 6.89555 4.94897 6.54392C4.94915 6.19229 5.089 5.85513 5.33777 5.60661C5.58654 5.35809 5.92384 5.21857 6.27547 5.21875C6.6271 5.21893 6.96427 5.35878 7.21278 5.60755C7.4613 5.85631 7.60082 6.19361 7.60064 6.54525ZM7.64042 8.8522H4.98875V17.1519H7.64042V8.8522ZM11.83 8.8522H9.19164V17.1519H11.8035V12.7966C11.8035 10.3703 14.9656 10.1449 14.9656 12.7966V17.1519H17.5842V11.895C17.5842 7.80479 12.904 7.95726 11.8035 9.9659L11.83 8.8522Z" fill="#CD929D"/>
</svg>
