<svg width="22" height="23" viewBox="0 0 22 23" fill="none" xmlns="http://www.w3.org/2000/svg">
<path d="M0 6.15591C0 3.2264 2.37484 0.851562 5.30435 0.851562H16.6957C19.6252 0.851562 22 3.2264 22 6.15591V17.5472C22 20.4767 19.6252 22.8516 16.6957 22.8516H5.30435C2.37484 22.8516 0 20.4767 0 17.5472V6.15591Z" fill="#FAF5F6"/>
<path d="M12.5051 10.4851L16.9482 5.32031H15.8952L12.0374 9.80472L8.95608 5.32031H5.4021L10.0616 12.1016L5.4021 17.5176H6.45507L10.5291 12.7819L13.7832 17.5176H17.3371L12.5048 10.4851H12.5051ZM11.063 12.1613L10.5908 11.486L6.83442 6.11294H8.4517L11.483 10.4493L11.9551 11.1245L15.8957 16.761H14.2786L11.063 12.1616V12.1613Z" fill="#CD929D"/>
</svg>
