<svg width="36" height="36" viewBox="0 0 36 36" fill="none" xmlns="http://www.w3.org/2000/svg">
<rect width="36" height="36" rx="8" fill="#F5EAEC"/>
<path d="M27.9201 22.75C27.5901 25.41 25.4101 27.59 22.7501 27.92C21.1401 28.12 19.6401 27.68 18.4701 26.82C17.8001 26.33 17.9601 25.29 18.7601 25.05C21.7701 24.14 24.1401 21.76 25.0601 18.75C25.3001 17.96 26.3401 17.8 26.8301 18.46C27.6801 19.64 28.1201 21.14 27.9201 22.75Z" fill="#CD929D"/>
<path d="M15.99 8C11.58 8 8 11.58 8 15.99C8 20.4 11.58 23.98 15.99 23.98C20.4 23.98 23.98 20.4 23.98 15.99C23.97 11.58 20.4 8 15.99 8ZM15.05 14.87L17.46 15.71C18.33 16.02 18.75 16.63 18.75 17.57C18.75 18.65 17.89 19.54 16.84 19.54H16.75V19.59C16.75 20 16.41 20.34 16 20.34C15.59 20.34 15.25 20 15.25 19.59V19.53C14.14 19.48 13.25 18.55 13.25 17.39C13.25 16.98 13.59 16.64 14 16.64C14.41 16.64 14.75 16.98 14.75 17.39C14.75 17.75 15.01 18.04 15.33 18.04H16.83C17.06 18.04 17.24 17.83 17.24 17.57C17.24 17.22 17.18 17.2 16.95 17.12L14.54 16.28C13.68 15.98 13.25 15.37 13.25 14.42C13.25 13.34 14.11 12.45 15.16 12.45H15.25V12.41C15.25 12 15.59 11.66 16 11.66C16.41 11.66 16.75 12 16.75 12.41V12.47C17.86 12.52 18.75 13.45 18.75 14.61C18.75 15.02 18.41 15.36 18 15.36C17.59 15.36 17.25 15.02 17.25 14.61C17.25 14.25 16.99 13.96 16.67 13.96H15.17C14.94 13.96 14.76 14.17 14.76 14.43C14.75 14.77 14.81 14.79 15.05 14.87Z" fill="#CD929D"/>
</svg>
