<svg width="36" height="36" viewBox="0 0 36 36" fill="none" xmlns="http://www.w3.org/2000/svg">
<rect width="36" height="36" rx="8" fill="#F5EAEC"/>
<path fill-rule="evenodd" clip-rule="evenodd" d="M14.9257 22.39H20.3119C20.7178 22.39 21.0545 22.05 21.0545 21.64C21.0545 21.23 20.7178 20.9 20.3119 20.9H14.9257C14.5198 20.9 14.1832 21.23 14.1832 21.64C14.1832 22.05 14.5198 22.39 14.9257 22.39ZM18.2723 15.9H14.9257C14.5198 15.9 14.1832 16.24 14.1832 16.65C14.1832 17.06 14.5198 17.39 14.9257 17.39H18.2723C18.6782 17.39 19.0149 17.06 19.0149 16.65C19.0149 16.24 18.6782 15.9 18.2723 15.9ZM25.3381 15.0256C25.5708 15.0229 25.8242 15.02 26.0545 15.02C26.302 15.02 26.5 15.22 26.5 15.47V23.51C26.5 25.99 24.5099 28 22.0545 28H14.1733C11.599 28 9.5 25.89 9.5 23.29V12.51C9.5 10.03 11.5 8 13.9653 8H19.2525C19.5099 8 19.7079 8.21 19.7079 8.46V11.68C19.7079 13.51 21.203 15.01 23.0149 15.02C23.4381 15.02 23.8112 15.0232 24.1377 15.0259C24.3917 15.0281 24.6175 15.03 24.8168 15.03C24.9578 15.03 25.1405 15.0279 25.3381 15.0256ZM25.6111 13.566C24.7972 13.569 23.8378 13.566 23.1477 13.559C22.0527 13.559 21.1507 12.648 21.1507 11.542V8.906C21.1507 8.475 21.6685 8.261 21.9646 8.572C22.5004 9.13476 23.2368 9.90834 23.9699 10.6784C24.7009 11.4463 25.4286 12.2107 25.9507 12.759C26.2398 13.062 26.0279 13.565 25.6111 13.566Z" fill="#CD929D"/>
</svg>
