<svg width="36" height="36" viewBox="0 0 36 36" fill="none" xmlns="http://www.w3.org/2000/svg">
<rect width="36" height="36" rx="8" fill="#F5EAEC"/>
<path fill-rule="evenodd" clip-rule="evenodd" d="M22.1583 14.2329C22.1583 16.5825 20.2851 18.4666 17.949 18.4666C15.6129 18.4666 13.7397 16.5825 13.7397 14.2329C13.7397 11.8823 15.6129 10 17.949 10C20.2851 10 22.1583 11.8823 22.1583 14.2329ZM17.949 26C14.5178 26 11.5881 25.456 11.5881 23.2802C11.5881 21.1034 14.499 20.5396 17.949 20.5396C21.3802 20.5396 24.31 21.0836 24.31 23.2604C24.31 25.4362 21.399 26 17.949 26ZM23.9571 14.3092C23.9571 15.507 23.5998 16.6229 22.973 17.5505C22.9086 17.646 22.9659 17.7748 23.0796 17.7946C23.2363 17.8216 23.3984 17.8369 23.5631 17.8414C25.2062 17.8846 26.6809 16.821 27.0883 15.2197C27.6918 12.8412 25.9198 10.7059 23.6634 10.7059C23.4181 10.7059 23.1835 10.732 22.9551 10.7788C22.9238 10.786 22.8907 10.8005 22.8728 10.8284C22.8513 10.8626 22.8674 10.9085 22.8889 10.9383C23.5667 11.8938 23.9571 13.0592 23.9571 14.3092ZM26.6782 19.5126C27.7823 19.7296 28.5084 20.1727 28.8093 20.8166C29.0636 21.3453 29.0636 21.9586 28.8093 22.4864C28.349 23.4851 26.8654 23.8058 26.2887 23.8886C26.1696 23.9066 26.0738 23.8031 26.0864 23.6833C26.3809 20.9157 24.0377 19.6035 23.4315 19.3018C23.4055 19.2883 23.4002 19.2676 23.4028 19.255C23.4046 19.246 23.4154 19.2316 23.4351 19.2289C24.7468 19.2046 26.1571 19.3847 26.6782 19.5126ZM12.4371 17.8413C12.6019 17.8368 12.763 17.8224 12.9206 17.7945C13.0343 17.7747 13.0916 17.6459 13.0272 17.5504C12.4004 16.6228 12.0431 15.5069 12.0431 14.3091C12.0431 13.0591 12.4335 11.8937 13.1113 10.9382C13.1328 10.9084 13.1481 10.8625 13.1275 10.8283C13.1096 10.8013 13.0755 10.786 13.0451 10.7788C12.8159 10.7319 12.5813 10.7058 12.3359 10.7058C10.0795 10.7058 8.30751 12.8411 8.91191 15.2196C9.31932 16.8209 10.794 17.8845 12.4371 17.8413ZM12.5969 19.2545C12.5996 19.268 12.5943 19.2878 12.5692 19.3022C11.9621 19.6039 9.61883 20.9161 9.91342 23.6827C9.92595 23.8034 9.83104 23.9061 9.71195 23.889C9.13531 23.8061 7.65163 23.4855 7.19139 22.4867C6.9362 21.9581 6.9362 21.3457 7.19139 20.817C7.49225 20.1731 8.21752 19.73 9.32156 19.512C9.84358 19.385 11.2529 19.2049 12.5656 19.2292C12.5853 19.2319 12.5951 19.2464 12.5969 19.2545Z" fill="#CD929D"/>
</svg>
