<svg width="36" height="36" viewBox="0 0 36 36" fill="none" xmlns="http://www.w3.org/2000/svg">
<rect width="36" height="36" rx="8" fill="white"/>
<path d="M20.9 28.75H15.1C14.21 28.75 13.07 28.28 12.45 27.65L8.35001 23.55C7.72001 22.92 7.25 21.78 7.25 20.9V15.1C7.25 14.21 7.72001 13.07 8.35001 12.45L12.45 8.35001C13.08 7.72001 14.22 7.25 15.1 7.25H20.9C21.79 7.25 22.93 7.72001 23.55 8.35001L27.65 12.45C28.28 13.08 28.75 14.22 28.75 15.1V20.9C28.75 21.79 28.28 22.93 27.65 23.55L23.55 27.65C22.92 28.28 21.79 28.75 20.9 28.75ZM15.1 8.75C14.61 8.75 13.85 9.06 13.51 9.41L9.41 13.51C9.07 13.86 8.75 14.61 8.75 15.1V20.9C8.75 21.39 9.06 22.15 9.41 22.49L13.51 26.59C13.86 26.93 14.61 27.25 15.1 27.25H20.9C21.39 27.25 22.15 26.94 22.49 26.59L26.59 22.49C26.93 22.14 27.25 21.39 27.25 20.9V15.1C27.25 14.61 26.94 13.85 26.59 13.51L22.49 9.41C22.14 9.07 21.39 8.75 20.9 8.75H15.1Z" fill="#CD929D"/>
<path d="M10.9409 25.83C10.7509 25.83 10.5609 25.76 10.4109 25.61C10.1209 25.32 10.1209 24.84 10.4109 24.55L24.5509 10.41C24.8409 10.12 25.3209 10.12 25.6109 10.41C25.9009 10.7 25.9009 11.18 25.6109 11.47L11.4709 25.61C11.3209 25.76 11.1309 25.83 10.9409 25.83Z" fill="#CD929D"/>
</svg>
