<svg width="36" height="36" viewBox="0 0 36 36" fill="none" xmlns="http://www.w3.org/2000/svg">
<rect width="36" height="36" rx="8" fill="#FAF5F6"/>
<path d="M11.3402 14.8703C10.5305 13.7906 11.3008 12.25 12.6503 12.25H23.3497C24.6992 12.25 25.4695 13.7906 24.6598 14.8703V14.8703C24.0692 15.6577 23.75 16.6154 23.75 17.5997V23.75C23.75 25.8671 22.0338 27.5833 19.9167 27.5833H16.0833C13.9662 27.5833 12.25 25.8671 12.25 23.75V17.5997C12.25 16.6154 11.9308 15.6577 11.3402 14.8703V14.8703Z" stroke="#CD929D" stroke-width="1.4375"/>
<path d="M19.9167 22.793L19.9167 17.043" stroke="#CD929D" stroke-width="1.4375" stroke-linecap="round" stroke-linejoin="round"/>
<path d="M16.0833 22.793L16.0833 17.043" stroke="#CD929D" stroke-width="1.4375" stroke-linecap="round" stroke-linejoin="round"/>
<path d="M21.8334 12.25L21.3119 10.6856C21.0511 9.90291 20.3186 9.375 19.4936 9.375H16.5065C15.6815 9.375 14.9491 9.90291 14.6882 10.6856L14.1667 12.25" stroke="#CD929D" stroke-width="1.4375" stroke-linecap="round"/>
</svg>
