<svg width="36" height="36" viewBox="0 0 36 36" fill="none" xmlns="http://www.w3.org/2000/svg">
<rect width="36" height="36" rx="8" fill="#FAF5F6"/>
<path d="M12.6167 24.2657C12.1083 24.2657 11.6333 24.0907 11.2917 23.7657C10.8583 23.3573 10.65 22.7406 10.725 22.074L11.0333 19.374C11.0917 18.8657 11.4 18.1906 11.7583 17.824L18.6 10.5823C20.3083 8.77398 22.0917 8.72398 23.9 10.4323C25.7083 12.1406 25.7583 13.924 24.05 15.7323L17.2083 22.974C16.8583 23.349 16.2083 23.699 15.7 23.7823L13.0167 24.2407C12.875 24.249 12.75 24.2657 12.6167 24.2657ZM21.275 10.424C20.6333 10.424 20.075 10.824 19.5083 11.424L12.6667 18.674C12.5 18.849 12.3083 19.2657 12.275 19.5073L11.9667 22.2073C11.9333 22.4823 12 22.7073 12.15 22.849C12.3 22.9907 12.525 23.0407 12.8 22.999L15.4833 22.5407C15.725 22.499 16.125 22.2823 16.2917 22.1073L23.1333 14.8656C24.1667 13.7656 24.5417 12.749 23.0333 11.3323C22.3667 10.6906 21.7917 10.424 21.275 10.424Z" fill="#CD929D"/>
<path d="M22.45 17.124C22.4333 17.124 22.4083 17.124 22.3917 17.124C19.7917 16.8657 17.7 14.8907 17.3 12.3073C17.25 11.9657 17.4833 11.649 17.825 11.5906C18.1667 11.5406 18.4833 11.774 18.5417 12.1156C18.8583 14.1323 20.4917 15.6823 22.525 15.8823C22.8667 15.9157 23.1167 16.224 23.0833 16.5656C23.0417 16.8823 22.7667 17.124 22.45 17.124Z" fill="#CD929D"/>
<path d="M25.5 26.9573H10.5C10.1583 26.9573 9.875 26.674 9.875 26.3323C9.875 25.9907 10.1583 25.7073 10.5 25.7073H25.5C25.8417 25.7073 26.125 25.9907 26.125 26.3323C26.125 26.674 25.8417 26.9573 25.5 26.9573Z" fill="#CD929D"/>
<path d="M12.6167 24.2657C12.1083 24.2657 11.6333 24.0907 11.2917 23.7657C10.8583 23.3573 10.65 22.7406 10.725 22.074L11.0333 19.374C11.0917 18.8657 11.4 18.1906 11.7583 17.824L18.6 10.5823C20.3083 8.77398 22.0917 8.72398 23.9 10.4323C25.7083 12.1406 25.7583 13.924 24.05 15.7323L17.2083 22.974C16.8583 23.349 16.2083 23.699 15.7 23.7823L13.0167 24.2407C12.875 24.249 12.75 24.2657 12.6167 24.2657ZM21.275 10.424C20.6333 10.424 20.075 10.824 19.5083 11.424L12.6667 18.674C12.5 18.849 12.3083 19.2657 12.275 19.5073L11.9667 22.2073C11.9333 22.4823 12 22.7073 12.15 22.849C12.3 22.9907 12.525 23.0407 12.8 22.999L15.4833 22.5407C15.725 22.499 16.125 22.2823 16.2917 22.1073L23.1333 14.8656C24.1667 13.7656 24.5417 12.749 23.0333 11.3323C22.3667 10.6906 21.7917 10.424 21.275 10.424Z" stroke="#CD929D" stroke-width="0.5"/>
<path d="M22.45 17.124C22.4333 17.124 22.4083 17.124 22.3917 17.124C19.7917 16.8657 17.7 14.8907 17.3 12.3073C17.25 11.9657 17.4833 11.649 17.825 11.5906C18.1667 11.5406 18.4833 11.774 18.5417 12.1156C18.8583 14.1323 20.4917 15.6823 22.525 15.8823C22.8667 15.9157 23.1167 16.224 23.0833 16.5656C23.0417 16.8823 22.7667 17.124 22.45 17.124Z" stroke="#CD929D" stroke-width="0.5"/>
<path d="M25.5 26.9573H10.5C10.1583 26.9573 9.875 26.674 9.875 26.3323C9.875 25.9907 10.1583 25.7073 10.5 25.7073H25.5C25.8417 25.7073 26.125 25.9907 26.125 26.3323C26.125 26.674 25.8417 26.9573 25.5 26.9573Z" stroke="#CD929D" stroke-width="0.5"/>
</svg>
