<svg width="36" height="37" viewBox="0 0 36 37" fill="none" xmlns="http://www.w3.org/2000/svg">
<rect y="0.5" width="36" height="36" rx="8" fill="#FAF5F6"/>
<path d="M21.1679 11.732L22.0799 10.292C21.2159 10.148 20.3999 10.148 19.9199 10.148C19.6799 10.148 15.6479 10.148 15.6479 10.148C15.6959 10.148 16.7999 10.148 20.8319 11.588C20.9279 11.684 21.0719 11.732 21.1679 11.732Z" fill="#CD929D"/>
<path d="M27.36 22.964C25.488 18.98 26.64 15.476 25.536 12.644C25.296 12.02 24.912 11.588 24.384 11.252L23.136 13.7C23.664 15.332 22.992 17.492 23.424 19.604C24.144 22.82 26.736 25.22 26.736 25.22C25.104 22.58 25.056 19.604 25.056 19.604C25.488 22.052 27.264 22.916 27.36 22.964Z" fill="#CD929D"/>
<path d="M29.472 11.396C29.376 11.156 29.184 11.06 28.944 11.06C28.848 11.06 28.8 11.06 28.704 11.108L25.968 12.452C26.16 12.932 26.256 13.412 26.352 13.892L29.232 12.068C29.472 11.924 29.568 11.636 29.472 11.396Z" fill="#CD929D"/>
<path d="M22.3199 14.276L25.4879 7.892C25.5359 7.796 25.5359 7.748 25.5359 7.652C25.5359 7.412 25.3919 7.22 25.1999 7.124C24.9599 7.028 24.6239 7.124 24.4799 7.364L19.1039 15.908L17.4719 16.724L17.7119 17.204C17.7599 17.3 17.8079 17.444 17.8079 17.54L18.1439 17.396L18.5279 17.78L18.6719 17.924C18.8159 18.116 18.9599 18.26 19.1999 18.5L19.1519 18.692L19.4399 18.836L19.9199 19.172L20.7359 17.54L22.8959 16.148C22.9439 15.38 22.9439 14.66 22.7519 14.084L22.3199 14.276ZM20.0639 17.348C19.8719 17.54 19.5839 17.54 19.3919 17.348C19.1999 17.156 19.1999 16.868 19.3919 16.676C19.5839 16.484 19.8719 16.484 20.0639 16.676C20.2079 16.868 20.2079 17.156 20.0639 17.348Z" fill="#CD929D"/>
<path d="M20.016 20.18C20.112 19.988 20.064 19.796 19.968 19.652L19.776 19.46V19.508C19.392 19.364 18.72 18.74 18.432 19.268L14.688 25.7C13.872 27.092 14.448 28.868 15.888 29.588C17.424 30.356 19.248 29.732 20.064 28.244C21.168 26.18 19.632 23.876 19.632 23.876C19.632 23.876 18.672 22.436 20.016 20.18ZM18.672 28.628C17.76 29.3 16.512 29.204 15.84 28.292C15.12 27.332 15.264 25.844 16.272 24.98C17.328 24.116 18.72 24.356 19.344 25.46C19.968 26.516 19.632 27.908 18.672 28.628Z" fill="#CD929D"/>
<path d="M17.3279 17.732C17.3759 17.636 17.3759 17.492 17.2799 17.396L17.0399 16.916L16.8479 16.532C16.7519 16.292 16.4639 16.244 16.2239 16.34C13.9679 17.684 12.5279 16.724 12.5279 16.724C12.5279 16.724 10.2239 15.188 8.15994 16.292C6.67194 17.108 6.04794 18.932 6.81594 20.468C7.53594 21.908 9.31194 22.436 10.7039 21.668L17.0879 18.02C17.2319 17.924 17.2799 17.828 17.3279 17.732ZM11.4239 20.084C10.5599 21.092 9.07194 21.236 8.11194 20.516C7.19994 19.844 7.10394 18.596 7.77594 17.684C8.49594 16.772 9.88794 16.388 10.8959 17.012C12.0479 17.636 12.2879 19.028 11.4239 20.084Z" fill="#CD929D"/>
</svg>
