<svg width="36" height="36" viewBox="0 0 36 36" fill="none" xmlns="http://www.w3.org/2000/svg">
<rect width="36" height="36" rx="8" fill="#FAF5F6"/>
<path d="M22.8043 19.2282C22.5827 19.2282 22.4036 19.4073 22.4036 19.6289V20.5593C22.4036 20.7809 22.5827 20.96 22.8043 20.96C23.0259 20.96 23.205 20.7809 23.205 20.5593V19.6289C23.205 19.4073 23.0259 19.2282 22.8043 19.2282Z" fill="#CD929D"/>
<path d="M22.8043 22.1169C22.5827 22.1169 22.4036 22.296 22.4036 22.5176V23.448C22.4036 23.6696 22.5827 23.8487 22.8043 23.8487C23.0259 23.8487 23.205 23.6696 23.205 23.448V22.5176C23.205 22.296 23.0259 22.1169 22.8043 22.1169Z" fill="#CD929D"/>
<path d="M24.7163 21.1367H23.7855C23.5639 21.1367 23.3848 21.3158 23.3848 21.5374C23.3848 21.759 23.5639 21.9381 23.7855 21.9381H24.7163C24.9379 21.9381 25.117 21.759 25.117 21.5374C25.117 21.3158 24.9379 21.1367 24.7163 21.1367Z" fill="#CD929D"/>
<path d="M21.8262 21.1367H20.8958C20.6742 21.1367 20.4951 21.3158 20.4951 21.5374C20.4951 21.759 20.6742 21.9381 20.8958 21.9381H21.8262C22.0478 21.9381 22.2269 21.759 22.2269 21.5374C22.2269 21.3158 22.0478 21.1367 21.8262 21.1367Z" fill="#CD929D"/>
<path d="M13.2656 11.1L17.2257 13.4024L17.5783 12.7957L19.5385 9.42303L15.5708 7.11781C15.4326 7.03807 15.2811 7 15.1321 7C14.8307 7 14.5382 7.15507 14.3767 7.43316L12.9434 9.89906C12.7399 10.2485 12.8044 10.6993 13.0965 10.9709C13.147 11.0206 13.1959 11.0575 13.266 11.1H13.2656Z" fill="#CD929D"/>
<path d="M23.0825 15.7932L24.5158 13.3273C24.7574 12.9102 24.6155 12.3728 24.1996 12.1296L20.2327 9.8252L17.9207 13.8033L21.8856 16.1086C22.3035 16.3506 22.8416 16.2095 23.0825 15.7932Z" fill="#CD929D"/>
<path d="M17.4498 20.0977C17.4498 20.728 17.2679 21.3154 16.9585 21.8159C16.3795 22.7543 15.3445 23.383 14.1633 23.383C12.5781 23.383 11.251 22.2547 10.9444 20.7588C10.9388 20.7316 10.9364 20.7031 10.9316 20.6755C10.898 20.4876 10.8775 20.2952 10.8775 20.0977V16.9562C10.3182 17.5388 10 18.317 10 19.1496V28.9992H18.3273V19.1496C18.3273 18.3174 18.0088 17.5388 17.4502 16.9566L17.4498 20.0977ZM12.649 24.7582H15.6783C15.8999 24.7582 16.079 24.9373 16.079 25.1589C16.079 25.3805 15.8999 25.5596 15.6783 25.5596H12.649C12.4274 25.5596 12.2483 25.3805 12.2483 25.1589C12.2483 24.9373 12.4274 24.7582 12.649 24.7582ZM16.3675 26.8755H11.9594C11.7378 26.8755 11.5587 26.6964 11.5587 26.4748C11.5587 26.2532 11.7378 26.0741 11.9594 26.0741H16.3675C16.5891 26.0741 16.7682 26.2532 16.7682 26.4748C16.7682 26.6964 16.5891 26.8755 16.3675 26.8755Z" fill="#CD929D"/>
<path d="M12.6757 11.6657H12.4649C12.033 11.6657 11.6812 12.0191 11.6812 12.4531V20.0984C11.6812 20.2567 11.6976 20.4109 11.726 20.5612C11.7284 20.5736 11.7292 20.586 11.7316 20.5985C11.7409 20.6441 11.7545 20.6878 11.7661 20.7327C11.7753 20.7672 11.7821 20.8024 11.7929 20.8365C12.1079 21.8466 13.0515 22.5815 14.1639 22.5815C15.021 22.5815 15.7779 22.1464 16.2251 21.486C16.4931 21.0897 16.6498 20.6121 16.6498 20.0988V13.9949L12.8576 11.7899C12.7899 11.749 12.7314 11.709 12.6785 11.6681C12.6777 11.6673 12.6765 11.6669 12.6757 11.6661V11.6657Z" fill="#CD929D"/>
</svg>
