<svg width="36" height="36" viewBox="0 0 36 36" fill="none" xmlns="http://www.w3.org/2000/svg">
<rect width="36" height="36" rx="8" fill="#FAF5F6"/>
<path fill-rule="evenodd" clip-rule="evenodd" d="M20.2388 23.2028C19.6967 22.2458 19.6479 21.7819 19.3696 20.7174C19.2036 20.0972 19.5551 19.7701 19.9018 19.6724C20.4341 19.5259 21.1616 19.8384 21.3326 20.4683C21.3765 20.6295 21.479 20.8834 21.5914 21.152C21.8013 21.6647 21.9527 22.0553 21.9966 22.3434C22.0943 22.363 22.1871 22.3874 22.2701 22.4118C22.2994 21.9577 22.3043 21.5084 22.3092 21.0348C22.3238 19.6919 22.3629 18.4956 22.7975 17.226C23.1051 16.3227 23.1588 15.1752 22.9439 14.1644C22.6998 13.0315 22.1382 12.1526 21.3618 11.6985C20.6392 11.2736 19.7016 10.9758 18.9008 10.8342C17.6849 10.6144 16.4202 10.6584 15.5804 11.1076C14.2424 11.8254 14.7063 14.8236 15.1262 15.9223C15.1507 15.9906 15.18 16.059 15.2044 16.1273C15.2679 16.0443 15.3362 15.9516 15.4046 15.8588C15.5804 15.6293 15.7464 15.4095 15.8294 15.2631C16.1614 14.7015 16.9427 14.5892 17.4164 14.8675C17.7289 15.0482 17.9779 15.4584 17.6605 16.015C17.1332 16.933 16.933 17.4213 16.1761 18.1929C16.0833 18.2856 15.9808 18.3931 15.8538 18.52C16.0687 19.8775 15.9808 21.2057 15.5608 22.8122C15.2141 24.1355 15.3606 25.6102 15.9319 26.577C16.3079 27.2069 16.8402 27.6122 17.5287 27.7831C18.8422 28.1103 19.8579 27.8856 20.6392 27.0897C20.6392 26.201 20.8784 24.4529 20.5757 23.8132C20.4438 23.5691 20.3315 23.364 20.2388 23.2028ZM18.559 14.975C18.1244 14.3597 17.5433 14.1107 16.7962 14.2132C16.6693 14.2279 16.5521 14.14 16.5326 14.013C16.5179 13.886 16.6058 13.7689 16.7328 13.7493C17.6605 13.6272 18.4027 13.9495 18.9399 14.7064C19.0131 14.8138 18.9887 14.9603 18.8862 15.0336C18.7836 15.1068 18.6371 15.0824 18.559 14.975ZM18.7153 19.482C18.6225 19.3892 18.6274 19.2427 18.7201 19.1499C19.5063 18.3833 20.3315 18.2222 21.1812 18.6714C21.2935 18.73 21.3374 18.8765 21.2788 18.9888C21.2202 19.1011 21.0786 19.145 20.9614 19.0865C20.3071 18.7398 19.6821 18.8667 19.0473 19.4869C18.9545 19.5748 18.8032 19.5748 18.7153 19.482Z" fill="#CD929D"/>
<path fill-rule="evenodd" clip-rule="evenodd" d="M15.8442 17.8657C16.5229 17.1723 16.7817 16.6156 17.2553 15.7855C17.4556 15.4388 17.2505 15.3168 17.1821 15.2777C16.938 15.1361 16.4399 15.1556 16.2348 15.5072C16.1323 15.6781 15.9613 15.9076 15.7758 16.1469C15.6586 16.2983 15.141 16.9623 15.1068 17.1772C15.0922 17.3042 14.975 17.4067 14.8431 17.3872C13.72 17.2651 13.4661 17.729 13.3685 18.0952C13.2903 18.3931 12.8362 18.2759 12.9144 17.978C13.056 17.4409 13.4808 16.8354 14.7015 16.9086C14.7406 16.8159 14.7992 16.7133 14.8676 16.601C14.809 16.435 14.7455 16.2641 14.682 16.0932C14.472 15.5463 14.2865 14.7455 14.2328 13.9153C13.4027 14.6673 12.8753 15.3314 12.8313 15.5853L11.8547 21.2936H14.4281C14.5404 20.6783 14.892 18.9302 15.3217 18.4077L15.3266 18.4028V18.3979L15.3314 18.3931C15.5414 18.1684 15.7074 18.0024 15.8442 17.8657Z" fill="#CD929D"/>
<path fill-rule="evenodd" clip-rule="evenodd" d="M24.1404 21.5475C24.1697 21.2203 23.6521 20.151 22.8708 19.0572C22.7927 19.731 22.7829 20.3902 22.778 21.0397C22.7731 21.5475 22.7683 22.0749 22.7243 22.6022C23.3005 22.9294 23.4421 23.4226 23.4421 23.8376C23.4421 24.1453 22.9733 24.1453 22.9733 23.8376C22.9782 23.0954 22.3386 22.8659 21.7331 22.7731C21.6012 22.7536 21.5133 22.6315 21.5329 22.4997C21.5524 22.3092 21.3131 21.7184 21.152 21.3278C21.0348 21.0445 20.9274 20.7809 20.8737 20.5904C20.7662 20.1998 20.2877 20.0484 20.0142 20.1217C19.941 20.1412 19.7115 20.2047 19.814 20.5904C20.0582 21.5182 20.1607 22.1188 20.6393 22.9685C20.7418 23.154 20.9274 23.4421 21.0006 23.6228C21.318 24.3259 21.1276 26.5233 21.1032 26.826V28.2568H23.6765L23.6521 26.8797C23.6521 26.8309 23.6521 26.787 23.657 26.7381L24.1404 21.5475Z" fill="#CD929D"/>
<path fill-rule="evenodd" clip-rule="evenodd" d="M15.2679 10.7463C15.2972 10.7267 15.3265 10.7121 15.3558 10.6974C15.8832 10.4142 16.5131 10.2775 17.1772 10.2433C17.2504 9.65737 17.2455 9.13 17.1577 8.54404C17.0991 8.22176 16.977 8.00202 16.7914 7.87507C16.5668 7.71881 16.2152 7.69439 15.7513 7.79694C15.3314 7.88971 15.0531 8.0655 14.9115 8.3243C14.7161 8.69053 14.8529 9.12512 14.8675 9.16906C15.1312 9.76479 15.2337 10.3068 15.2679 10.7463Z" fill="#CD929D"/>
<path fill-rule="evenodd" clip-rule="evenodd" d="M18.8375 10.3459C18.9644 9.96012 19.0377 9.57924 19.0767 9.17395C19.0865 8.9884 19.0425 8.84679 18.9449 8.7296C18.7984 8.5587 18.5201 8.45127 18.188 8.43662C18.0269 8.43174 17.9048 8.45127 17.812 8.49033C17.7095 8.5294 17.6509 8.62706 17.6606 8.73448C17.7241 9.28626 17.6997 9.81363 17.6509 10.2287C18.0415 10.2385 18.4419 10.2824 18.8375 10.3459Z" fill="#CD929D"/>
<path fill-rule="evenodd" clip-rule="evenodd" d="M20.6783 9.82339C20.6978 9.60853 20.6685 9.45228 20.5806 9.35462C20.4878 9.24231 20.3072 9.18371 20.0484 9.16906C19.897 9.16418 19.7652 9.18371 19.6577 9.23254C19.5796 9.26672 19.5308 9.33508 19.521 9.41321C19.4771 9.75502 19.394 10.131 19.3013 10.4386C19.7017 10.5265 20.0923 10.6388 20.4537 10.7707C20.5611 10.4679 20.6441 10.1408 20.6783 9.82339Z" fill="#CD929D"/>
<path fill-rule="evenodd" clip-rule="evenodd" d="M21.7332 11.3762C21.8455 11.1955 21.9432 11.0051 22.0164 10.8049C22.075 10.6437 22.0799 10.5119 22.0359 10.4191C21.9822 10.3117 21.8553 10.2238 21.6502 10.1554C21.4597 10.092 21.1863 10.048 21.0544 10.3898C21.0056 10.5949 20.947 10.7805 20.8884 10.9416C21.1521 11.0539 21.3914 11.1711 21.6013 11.2981C21.6453 11.3176 21.6892 11.3469 21.7332 11.3762Z" fill="#CD929D"/>
<path fill-rule="evenodd" clip-rule="evenodd" d="M22.783 12.4846C22.9002 12.3088 23.0174 12.094 23.1004 11.8596C23.159 11.6985 23.1687 11.5666 23.1199 11.4739C23.0662 11.3664 22.9392 11.2785 22.7342 11.2102C22.5828 11.1613 22.4607 11.1516 22.363 11.1906C22.28 11.3713 22.1873 11.5324 22.1042 11.6692C22.363 11.8938 22.5926 12.1672 22.783 12.4846Z" fill="#CD929D"/>
</svg>
