<svg width="36" height="36" viewBox="0 0 36 36" fill="none" xmlns="http://www.w3.org/2000/svg">
<rect width="36" height="36" rx="8" fill="#FAF5F6"/>
<path d="M25.3059 19.0547H25.8528C27.0374 19.0547 28.0012 18.0909 28.0012 16.9062V16.0078C28.0012 14.8232 27.0374 13.8594 25.8528 13.8594H21.8743V15.0312H25.8528C26.3913 15.0312 26.8293 15.4693 26.8293 16.0078V16.9062C26.8293 17.4447 26.3913 17.8828 25.8528 17.8828H25.3059C24.1213 17.8828 23.1575 18.8466 23.1575 20.0312V20.5C23.1575 21.6846 24.1213 22.6484 25.3059 22.6484C25.523 22.6484 25.7247 22.7461 25.8595 22.9162L26.9559 24.3012C27.0715 24.4473 27.2428 24.5234 27.4157 24.5234C27.5431 24.5234 27.6714 24.4821 27.779 24.3969C28.0327 24.196 28.0756 23.8275 27.8747 23.5738L26.7783 22.1888C26.4199 21.7362 25.8832 21.4766 25.3059 21.4766C24.7674 21.4766 24.3293 21.0385 24.3293 20.5V20.0312C24.3293 19.4928 24.7674 19.0547 25.3059 19.0547Z" fill="#CD929D"/>
<path d="M20.7024 13.6525L9.49146 15.5592V17.0096L20.7024 15.1039V13.6525Z" fill="#CD929D"/>
<path d="M9.49146 18.1984V19.6542L20.7024 17.7492V16.2928L9.49146 18.1984Z" fill="#CD929D"/>
<path d="M12.8704 22.9217H20.7011H20.7011V21.5911L12.8704 22.9217Z" fill="#CD929D"/>
<path d="M20.7024 20.403V18.9384L9.49146 20.8434V22.308L20.7024 20.403Z" fill="#CD929D"/>
<path d="M9.49146 14.3708L17.0918 13.0781H9.49146V14.3708Z" fill="#CD929D"/>
<path d="M9.49019 11.9062H10.0761H20.1152H20.7011L22.0136 9.78937C22.4976 9.00871 21.9362 8 21.0176 8H20.7011H9.49019H9.1737C8.25519 8 7.69374 9.00871 8.17776 9.78937L9.49019 11.9062Z" fill="#CD929D"/>
<path d="M20.7011 24.0938H9.49019L8.17776 26.2106C7.69374 26.9913 8.25519 28 9.17374 28H9.49022H20.7012H21.0176C21.9362 28 22.4976 26.9913 22.0136 26.2106L20.7011 24.0938Z" fill="#CD929D"/>
</svg>
