<svg width="15" height="16" viewBox="0 0 15 16" fill="none" xmlns="http://www.w3.org/2000/svg">
<g id="Star">
<path id="Star 2" d="M6.30516 2.37515C6.77156 1.60017 7.89511 1.60017 8.3615 2.37515L9.48503 4.24207C9.65258 4.52048 9.92588 4.71905 10.2424 4.79236L12.3652 5.28399C13.2464 5.48807 13.5936 6.55664 13.0006 7.23969L11.5723 8.88514C11.3593 9.13052 11.2549 9.4518 11.283 9.77553L11.4714 11.9463C11.5496 12.8474 10.6406 13.5078 9.80774 13.155L7.80144 12.305C7.50224 12.1782 7.16443 12.1782 6.86523 12.305L4.85893 13.155C4.02608 13.5078 3.11711 12.8474 3.19531 11.9463L3.38371 9.77553C3.4118 9.4518 3.30741 9.13052 3.0944 8.88514L1.66604 7.23969C1.07311 6.55664 1.42031 5.48807 2.30149 5.28399L4.42422 4.79236C4.74079 4.71905 5.01408 4.52048 5.18164 4.24207L6.30516 2.37515Z" fill="#EDB600" stroke="#EDB600" stroke-width="1.5"/>
</g>
</svg>
