<svg width="18" height="19" viewBox="0 0 18 19" fill="none" xmlns="http://www.w3.org/2000/svg">
<g id="check-verified-02">
<path id="Icon" d="M6.75 9.5L8.25 11L11.625 7.625M13.4259 4.24888C13.5803 4.6224 13.8768 4.9193 14.25 5.0743L15.5589 5.61648C15.9325 5.77121 16.2292 6.068 16.384 6.44154C16.5387 6.81509 16.5387 7.23481 16.384 7.60836L15.8422 8.91635C15.6874 9.29007 15.6872 9.71021 15.8427 10.0837L16.3835 11.3913C16.4602 11.5764 16.4997 11.7747 16.4997 11.975C16.4998 12.1752 16.4603 12.3736 16.3837 12.5586C16.3071 12.7436 16.1947 12.9118 16.0531 13.0534C15.9114 13.195 15.7433 13.3073 15.5582 13.3839L14.2503 13.9256C13.8768 14.0801 13.5799 14.3765 13.4249 14.7498L12.8827 16.0588C12.728 16.4323 12.4312 16.7291 12.0577 16.8838C11.6841 17.0386 11.2644 17.0386 10.8909 16.8838L9.58296 16.342C9.20942 16.1877 8.78987 16.188 8.41656 16.3429L7.10767 16.8843C6.73434 17.0387 6.31501 17.0386 5.94178 16.884C5.56855 16.7293 5.27194 16.4329 5.11711 16.0598L4.57479 14.7504C4.42035 14.3769 4.12391 14.08 3.75064 13.925L2.44175 13.3828C2.06838 13.2282 1.77169 12.9316 1.61691 12.5582C1.46213 12.1849 1.46192 11.7654 1.61633 11.3919L2.1581 10.0839C2.31244 9.71035 2.31213 9.29079 2.15722 8.91746L1.61623 7.60759C1.53953 7.42257 1.50003 7.22426 1.5 7.02397C1.49997 6.82369 1.5394 6.62536 1.61604 6.44032C1.69268 6.25529 1.80504 6.08716 1.94668 5.94556C2.08832 5.80396 2.25647 5.69166 2.44152 5.61508L3.74947 5.07329C4.12265 4.91898 4.41936 4.6229 4.57448 4.25004L5.11664 2.94111C5.27136 2.56756 5.56813 2.27078 5.94167 2.11605C6.3152 1.96132 6.7349 1.96132 7.10844 2.11605L8.41638 2.65784C8.78993 2.81218 9.20948 2.81187 9.58279 2.65696L10.8922 2.11689C11.2657 1.96224 11.6853 1.96228 12.0588 2.11697C12.4322 2.27167 12.729 2.56837 12.8837 2.94182L13.426 4.25115L13.4259 4.24888Z" stroke="#6C757D" stroke-width="1.3" stroke-linecap="round" stroke-linejoin="round"/>
</g>
</svg>
