<svg width="18" height="19" viewBox="0 0 18 19" fill="none" xmlns="http://www.w3.org/2000/svg">
<g id="vuesax/outline/forbidden">
<g id="forbidden">
<path id="Vector" d="M11.175 17.5625H6.825C6.1575 17.5625 5.3025 17.21 4.8375 16.7375L1.7625 13.6625C1.29 13.19 0.9375 12.335 0.9375 11.675V7.325C0.9375 6.6575 1.29 5.80251 1.7625 5.33751L4.8375 2.2625C5.31 1.79 6.165 1.4375 6.825 1.4375H11.175C11.8425 1.4375 12.6975 1.79 13.1625 2.2625L16.2375 5.33751C16.71 5.81001 17.0625 6.665 17.0625 7.325V11.675C17.0625 12.3425 16.71 13.1975 16.2375 13.6625L13.1625 16.7375C12.69 17.21 11.8425 17.5625 11.175 17.5625ZM6.825 2.5625C6.4575 2.5625 5.8875 2.795 5.6325 3.0575L2.5575 6.13251C2.3025 6.39501 2.0625 6.9575 2.0625 7.325V11.675C2.0625 12.0425 2.295 12.6125 2.5575 12.8675L5.6325 15.9425C5.895 16.1975 6.4575 16.4375 6.825 16.4375H11.175C11.5425 16.4375 12.1125 16.205 12.3675 15.9425L15.4425 12.8675C15.6975 12.605 15.9375 12.0425 15.9375 11.675V7.325C15.9375 6.9575 15.705 6.38751 15.4425 6.13251L12.3675 3.0575C12.105 2.8025 11.5425 2.5625 11.175 2.5625H6.825Z" fill="#6C757D"/>
<path id="Vector_2" d="M3.70491 15.3726C3.56241 15.3726 3.41991 15.3201 3.30741 15.2076C3.08991 14.9901 3.08991 14.6301 3.30741 14.4126L13.9124 3.80766C14.1299 3.59016 14.4899 3.59016 14.7074 3.80766C14.9249 4.02516 14.9249 4.38515 14.7074 4.60265L4.10241 15.2076C3.98991 15.3201 3.84741 15.3726 3.70491 15.3726Z" fill="#6C757D"/>
</g>
</g>
</svg>
