<svg width="18" height="19" viewBox="0 0 18 19" fill="none" xmlns="http://www.w3.org/2000/svg">
<path d="M3.78797 7.05063C3.15429 6.20573 3.75716 5 4.81329 5H13.1867C14.2428 5 14.8457 6.20573 14.212 7.05063V7.05063C13.7498 7.66688 13.5 8.4164 13.5 9.18671V14C13.5 15.6569 12.1569 17 10.5 17H7.5C5.84315 17 4.5 15.6569 4.5 14V9.18671C4.5 8.4164 4.25016 7.66688 3.78797 7.05063V7.05063Z" stroke="#6C757D" stroke-width="1.125"/>
<path d="M10.5 13.25L10.5 8.75" stroke="#6C757D" stroke-width="1.125" stroke-linecap="round" stroke-linejoin="round"/>
<path d="M7.5 13.25L7.5 8.75" stroke="#6C757D" stroke-width="1.125" stroke-linecap="round" stroke-linejoin="round"/>
<path d="M12 5L11.5919 3.77566C11.3877 3.16315 10.8145 2.75 10.1689 2.75H7.83114C7.18549 2.75 6.61229 3.16314 6.40811 3.77566L6 5" stroke="#6C757D" stroke-width="1.125" stroke-linecap="round"/>
</svg>
