<svg width="18" height="19" viewBox="0 0 18 19" fill="none" xmlns="http://www.w3.org/2000/svg">
<g id="vuesax/outline/shield-cross">
<g id="shield-cross">
<path id="Vector" d="M3.53996 14.41L3.53994 14.41C3.12016 14.097 2.74406 13.6107 2.47286 13.0702C2.20166 12.5296 2.03755 11.9392 2.03755 11.4201V5.84008C2.03755 4.70582 2.8722 3.4946 3.94 3.09693L3.94009 3.0969L7.68255 1.69441C8.04666 1.55834 8.51849 1.48945 8.99255 1.48945C9.46661 1.48945 9.93844 1.55834 10.3025 1.69441L14.045 3.0969L14.0451 3.09693C15.1129 3.4946 15.9475 4.70582 15.9475 5.84008V11.4126C15.9475 11.9355 15.7834 12.5259 15.5122 13.0654C15.2411 13.605 14.865 14.0895 14.4452 14.4025L14.4451 14.4025L11.2201 16.81L11.2195 16.8105C10.6071 17.2827 9.80828 17.5201 9.00005 17.5201C8.19193 17.5201 7.39269 17.2828 6.76482 16.8174L3.53996 14.41ZM8.04507 2.65823L8.045 2.65826L4.3025 4.06076L4.30243 4.06078C3.97176 4.18527 3.6643 4.45567 3.43985 4.7804C3.21539 5.10515 3.07005 5.4899 3.07005 5.84758V11.4201C3.07005 11.7866 3.19882 12.2219 3.39691 12.6172C3.595 13.0124 3.86563 13.374 4.15513 13.5901L4.18505 13.5501L4.15514 13.5901L7.3801 15.9976C7.82172 16.3279 8.41225 16.4913 9.00099 16.4913C9.58974 16.4913 10.182 16.3279 10.6273 15.9977L10.6275 15.9976L13.8525 13.5901L13.8525 13.5901C14.1457 13.3702 14.4163 13.0087 14.6135 12.6143C14.8107 12.2199 14.9375 11.7865 14.9375 11.4201V5.84008C14.9375 5.48604 14.7921 5.10317 14.5677 4.77852C14.3433 4.45385 14.036 4.18173 13.7056 4.05346L13.7051 4.05326L9.96259 2.65076L9.9626 2.65075L9.96169 2.65043C9.69954 2.55791 9.3484 2.51257 9.00085 2.51352C8.65338 2.51446 8.30382 2.56169 8.04507 2.65823Z" fill="#6C757D" stroke="#6C757D" stroke-width="0.1"/>
<path id="Vector_2" d="M10.6124 11.0927C10.4824 11.0927 10.3529 11.0449 10.2502 10.9423L7.06274 7.7548C6.86476 7.55683 6.86476 7.22849 7.06274 7.03051C7.26071 6.83254 7.58905 6.83254 7.78703 7.03051L10.9745 10.218C11.1723 10.4158 11.1725 10.7437 10.9751 10.9417C10.871 11.0386 10.7406 11.0927 10.6124 11.0927Z" fill="#6C757D" stroke="#6C757D" stroke-width="0.1"/>
<path id="Vector_3" d="M7.74967 10.9716L7.74965 10.9716L7.74848 10.9728C7.65445 11.0736 7.51857 11.122 7.38753 11.122C7.25757 11.122 7.12801 11.0742 7.02538 10.9716C6.82741 10.7736 6.82741 10.4453 7.02538 10.2473L10.2129 7.05981C10.4109 6.86183 10.7392 6.86183 10.9372 7.05981C11.1351 7.25778 11.1351 7.58612 10.9372 7.7841L7.74967 10.9716Z" fill="#6C757D" stroke="#6C757D" stroke-width="0.1"/>
</g>
</g>
</svg>
