<svg width="20" height="21" viewBox="0 0 20 21" fill="none" xmlns="http://www.w3.org/2000/svg">
<g id="Interface essential/Sync-retry">
<g id="Icon">
<path id="Path" d="M13.6527 5.57666C13.2744 5.57666 12.9678 5.88331 12.9678 6.26159C12.9678 6.63987 13.2744 6.94652 13.6527 6.94652C15.2893 6.95643 16.6149 8.27803 16.6299 9.91456V11.741C16.6149 13.3776 15.2893 14.6992 13.6527 14.7091H11.6253L12.8765 13.4671C13.1435 13.1997 13.1435 12.7664 12.8765 12.499C12.7493 12.3685 12.5747 12.2949 12.3924 12.2949C12.2102 12.2949 12.0356 12.3685 11.9084 12.499L9.48833 14.91C9.42642 14.9733 9.37686 15.0477 9.34221 15.1292C9.27851 15.3 9.27851 15.488 9.34221 15.6589C9.37686 15.7404 9.42642 15.8147 9.48833 15.878L11.9084 18.289C12.1758 18.5561 12.609 18.5561 12.8765 18.289C13.1435 18.0216 13.1435 17.5884 12.8765 17.321L11.6253 16.0789H13.6527C16.0458 16.069 17.9847 14.1341 17.9997 11.741V9.91456C17.9847 7.52148 16.0458 5.58663 13.6527 5.57666Z" fill="#6C757D"/>
<path id="Path_2" d="M10.6575 6.52659C10.7212 6.35577 10.7212 6.16772 10.6575 5.99691C10.6197 5.91717 10.5705 5.84334 10.5114 5.77773L8.09132 3.36677C7.96412 3.23623 7.78958 3.1626 7.60731 3.1626C7.42503 3.1626 7.25049 3.23623 7.12329 3.36677C6.85621 3.63418 6.85621 4.06739 7.12329 4.33481L8.37443 5.57682H6.34703C3.95393 5.58678 2.015 7.52164 2 9.91472V11.7412C2.015 14.1343 3.95393 16.0691 6.34703 16.0791C6.72531 16.0791 7.03196 15.7724 7.03196 15.3942C7.03196 15.0159 6.72531 14.7092 6.34703 14.7092C4.71046 14.6993 3.3848 13.3777 3.36986 11.7412V9.91472C3.3848 8.27819 4.71046 6.95659 6.34703 6.94668H8.3653L7.12329 8.18869C6.85621 8.4561 6.85621 8.88931 7.12329 9.15673C7.3907 9.42381 7.82391 9.42381 8.09132 9.15673L10.5114 6.74577C10.5705 6.68015 10.6197 6.60633 10.6575 6.52659Z" fill="#6C757D"/>
</g>
</g>
</svg>
