<svg width="18" height="19" viewBox="0 0 18 19" fill="none" xmlns="http://www.w3.org/2000/svg">
<g id="vuesax/outline/shield-tick">
<g id="shield-tick">
<path id="Vector" d="M9.00005 17.5701C8.18255 17.5701 7.37255 17.3301 6.73505 16.8576L3.51005 14.4501C2.65505 13.8126 1.98755 12.4776 1.98755 11.4201V5.84008C1.98755 4.68508 2.83505 3.45508 3.92255 3.05008L7.66505 1.64758C8.40755 1.37008 9.57755 1.37008 10.32 1.64758L14.0625 3.05008C15.15 3.45508 15.9975 4.68508 15.9975 5.84008V11.4126C15.9975 12.4776 15.33 13.8051 14.475 14.4426L11.25 16.8501C10.6275 17.3301 9.81755 17.5701 9.00005 17.5701ZM8.06255 2.70508L4.32005 4.10758C3.68255 4.34758 3.12005 5.15758 3.12005 5.84758V11.4201C3.12005 12.1326 3.62255 13.1301 4.18505 13.5501L7.41005 15.9576C8.27255 16.6026 9.72755 16.6026 10.5975 15.9576L13.8225 13.5501C14.3925 13.1226 14.8875 12.1326 14.8875 11.4201V5.84008C14.8875 5.15758 14.325 4.34758 13.6875 4.10008L9.94505 2.69758C9.43505 2.51758 8.56505 2.51758 8.06255 2.70508Z" fill="#6C757D" stroke="#6C757D" stroke-width="0.1"/>
<path id="Vector_2" d="M7.99493 11.1723C7.85243 11.1723 7.70993 11.1198 7.59743 11.0073L6.38993 9.79984C6.17243 9.58234 6.17243 9.22234 6.38993 9.00484C6.60743 8.78734 6.96743 8.78734 7.18493 9.00484L7.99493 9.81484L10.8224 6.98734C11.0399 6.76984 11.3999 6.76984 11.6174 6.98734C11.8349 7.20484 11.8349 7.56484 11.6174 7.78234L8.39243 11.0073C8.27993 11.1198 8.13743 11.1723 7.99493 11.1723Z" fill="#6C757D" stroke="#6C757D" stroke-width="0.1"/>
</g>
</g>
</svg>
